# This file uses centimeters as units for non-parametric coordinates.

mtllib blacboard01.mtl
g default
v -1574.157318 202.430570 -1781.876815
v -1571.067670 202.430570 -1781.876815
v -1574.157318 202.430570 -1962.615440
v -1571.067670 202.430570 -1962.615440
v -1574.157318 90.736282 -1962.615440
v -1571.067670 90.736282 -1962.615440
v -1571.067670 90.736248 -1781.876815
v -1574.157318 90.736248 -1781.876815
v -1574.157318 202.430570 -1785.056317
v -1571.067670 202.430570 -1785.056317
v -1571.067670 90.736248 -1785.056317
v -1574.157318 90.736248 -1785.056317
v -1574.157318 90.736282 -1958.391596
v -1571.067670 90.736282 -1958.391596
v -1571.067670 202.430570 -1958.391596
v -1574.157318 202.430570 -1958.391596
v -1574.157318 199.724667 -1962.615440
v -1571.067670 199.724667 -1962.615440
v -1571.067670 199.724667 -1958.391596
v -1571.067670 199.724667 -1785.056317
v -1571.067670 199.724667 -1781.876815
v -1574.157318 199.724667 -1781.876815
v -1574.157318 93.442140 -1781.876815
v -1571.067670 93.442140 -1781.876815
v -1571.067670 93.442140 -1785.056317
v -1571.067670 93.442174 -1958.391596
v -1571.067670 93.442180 -1962.615440
v -1574.157318 93.442180 -1962.615440
v -1570.383835 93.442140 -1781.876815
v -1570.383835 199.724667 -1781.876815
v -1570.383835 93.442140 -1785.056317
v -1570.383835 199.724667 -1785.056317
v -1570.383835 199.724667 -1962.615440
v -1570.383835 93.442180 -1962.615440
v -1570.383835 199.724667 -1958.391596
v -1570.383835 93.442174 -1958.391596
v -1570.383835 202.430570 -1958.391596
v -1570.383835 202.430570 -1962.615440
v -1570.383835 202.430570 -1785.056317
v -1570.383835 202.430570 -1781.876815
v -1570.383835 90.736248 -1785.056317
v -1570.383835 90.736248 -1781.876815
v -1570.383835 90.736282 -1958.391596
v -1570.383835 90.736282 -1962.615440
vt 0.375000 0.495000
vt 0.375000 0.253750
vt 0.625000 0.253750
vt 0.625000 0.495000
vt 0.375000 0.731602
vt 0.375000 0.505939
vt 0.625000 0.505939
vt 0.625000 0.731602
vt 0.870000 0.018398
vt 0.870000 0.244061
vt 0.628750 0.244061
vt 0.628750 0.018398
vt 0.625000 0.244061
vt 0.375000 0.244061
vt 0.375000 0.018398
vt 0.625000 0.018398
vt 0.000000 0.985000
vt 0.014649 0.985000
vt 0.014649 0.020000
vt 0.000000 0.020000
vt 0.375000 0.250000
vt 0.625000 0.250000
vt 0.625000 0.244061
vt 0.625000 0.018398
vt 0.628750 0.018398
vt 0.628750 0.244061
vt 0.000000 1.000000
vt 0.014649 1.000000
vt 0.014649 0.000000
vt 0.000000 0.000000
vt 0.875000 0.018398
vt 0.875000 0.244061
vt 0.870000 0.244061
vt 0.870000 0.018398
vt 0.625000 0.500000
vt 0.375000 0.500000
vt 0.870000 0.250000
vt 0.875000 0.250000
vt 0.628750 0.250000
vt 0.625000 0.250000
vt 0.375000 0.012459
vt 0.625000 0.012459
vt 0.625000 0.012459
vt 0.628750 0.012459
vt 0.870000 0.012460
vt 0.875000 0.012460
vt 0.625000 0.737540
vt 0.375000 0.737540
vt 0.875000 0.018398
vt 0.875000 0.244061
vt 0.875000 0.250000
vt 0.870000 0.250000
vt 0.628750 0.250000
vt 0.628750 0.012459
vt 0.870000 0.012460
vt 0.875000 0.012460
vn 0.000000 1.000000 0.000000
vn 0.000000 1.000000 0.000000
vn 0.000000 1.000000 0.000000
vn 0.000000 1.000000 0.000000
vn 0.000000 0.000000 -1.000000
vn 0.000000 0.000000 -1.000000
vn 0.000000 0.000000 -1.000000
vn 0.000000 0.000000 -1.000000
vn 1.000000 0.000000 0.000000
vn 1.000000 0.000000 0.000000
vn 1.000000 0.000000 0.000000
vn 1.000000 0.000000 0.000000
vn 0.000000 0.000000 1.000000
vn 0.000000 0.000000 1.000000
vn 0.000000 0.000000 1.000000
vn 0.000000 0.000000 1.000000
vn 0.000000 -1.000000 -0.000000
vn 0.000000 -1.000000 -0.000000
vn 0.000000 -1.000000 -0.000000
vn 0.000000 -1.000000 -0.000000
vn 0.000000 1.000000 0.000000
vn 0.000000 1.000000 0.000000
vn 0.000000 1.000000 0.000000
vn 0.000000 1.000000 0.000000
vn 1.000000 0.000000 0.000000
vn 1.000000 0.000000 0.000000
vn 1.000000 0.000000 0.000000
vn 1.000000 0.000000 0.000000
vn 0.000000 -1.000000 0.000000
vn 0.000000 -1.000000 0.000000
vn 0.000000 -1.000000 0.000000
vn 0.000000 -1.000000 0.000000
vn 0.000000 -1.000000 0.000000
vn 0.000000 -1.000000 0.000000
vn 0.000000 -1.000000 0.000000
vn 0.000000 -1.000000 0.000000
vn 1.000000 0.000000 0.000000
vn 1.000000 0.000000 0.000000
vn 1.000000 0.000000 0.000000
vn 1.000000 0.000000 0.000000
vn 0.000000 1.000000 0.000000
vn 0.000000 1.000000 0.000000
vn 0.000000 1.000000 0.000000
vn 0.000000 1.000000 0.000000
vn 0.000000 0.000000 -1.000000
vn 0.000000 0.000000 -1.000000
vn 0.000000 0.000000 -1.000000
vn 0.000000 0.000000 -1.000000
vn 1.000000 0.000000 0.000000
vn 1.000000 0.000000 0.000000
vn 1.000000 0.000000 0.000000
vn 1.000000 0.000000 0.000000
vn 1.000000 0.000000 0.000000
vn 1.000000 0.000000 0.000000
vn 1.000000 0.000000 0.000000
vn 1.000000 0.000000 0.000000
vn 1.000000 0.000000 0.000000
vn 1.000000 0.000000 0.000000
vn 1.000000 0.000000 0.000000
vn 1.000000 0.000000 0.000000
vn 0.000000 0.000000 1.000000
vn 0.000000 0.000000 1.000000
vn 0.000000 0.000000 1.000000
vn 0.000000 0.000000 1.000000
vn 0.000000 0.000000 1.000000
vn 0.000000 0.000000 1.000000
vn 0.000000 0.000000 1.000000
vn 0.000000 0.000000 1.000000
vn 1.000000 0.000000 0.000000
vn 1.000000 0.000000 0.000000
vn 1.000000 0.000000 0.000000
vn 1.000000 0.000000 0.000000
vn 1.000000 0.000000 0.000000
vn 1.000000 0.000000 0.000000
vn 1.000000 0.000000 0.000000
vn 1.000000 0.000000 0.000000
vn 1.000000 0.000000 0.000000
vn 1.000000 0.000000 0.000000
vn 1.000000 0.000000 0.000000
vn 1.000000 0.000000 0.000000
vn 0.000000 0.000000 -1.000000
vn 0.000000 0.000000 -1.000000
vn 0.000000 0.000000 -1.000000
vn 0.000000 0.000000 -1.000000
vn 0.000000 0.000000 1.000000
vn 0.000000 0.000000 1.000000
vn 0.000000 0.000000 1.000000
vn 0.000000 0.000000 1.000000
vn 0.000000 0.000000 -1.000000
vn 0.000000 0.000000 -1.000000
vn 0.000000 0.000000 -1.000000
vn 0.000000 0.000000 -1.000000
vn 0.000000 0.000000 -1.000000
vn 0.000000 0.000000 -1.000000
vn 0.000000 0.000000 -1.000000
vn 0.000000 0.000000 -1.000000
vn 0.000000 0.000000 1.000000
vn 0.000000 0.000000 1.000000
vn 0.000000 0.000000 1.000000
vn 0.000000 0.000000 1.000000
vn 0.000000 0.000000 -1.000000
vn 0.000000 0.000000 -1.000000
vn 0.000000 0.000000 -1.000000
vn 0.000000 0.000000 -1.000000
vn 0.000000 1.000000 0.000000
vn 0.000000 1.000000 0.000000
vn 0.000000 1.000000 0.000000
vn 0.000000 1.000000 0.000000
vn 0.000000 1.000000 0.000000
vn 0.000000 1.000000 0.000000
vn 0.000000 1.000000 0.000000
vn 0.000000 1.000000 0.000000
vn 0.000000 -1.000000 0.000000
vn 0.000000 -1.000000 0.000000
vn 0.000000 -1.000000 0.000000
vn 0.000000 -1.000000 0.000000
vn 0.000000 1.000000 0.000000
vn 0.000000 1.000000 0.000000
vn 0.000000 1.000000 0.000000
vn 0.000000 1.000000 0.000000
vn 0.000000 0.000000 1.000000
vn 0.000000 0.000000 1.000000
vn 0.000000 0.000000 1.000000
vn 0.000000 0.000000 1.000000
vn 0.000000 -1.000000 0.000000
vn 0.000000 -1.000000 0.000000
vn 0.000000 -1.000000 0.000000
vn 0.000000 -1.000000 0.000000
vn 0.000000 0.000000 1.000000
vn 0.000000 0.000000 1.000000
vn 0.000000 0.000000 1.000000
vn 0.000000 0.000000 1.000000
vn 0.000000 -1.000000 -0.000000
vn 0.000000 -1.000000 -0.000000
vn 0.000000 -1.000000 -0.000000
vn 0.000000 -1.000000 -0.000000
vn 0.000000 1.000000 0.000000
vn 0.000000 1.000000 0.000000
vn 0.000000 1.000000 0.000000
vn 0.000000 1.000000 0.000000
vn 0.000000 -1.000000 0.000000
vn 0.000000 -1.000000 0.000000
vn 0.000000 -1.000000 0.000000
vn 0.000000 -1.000000 0.000000
vn 0.000000 0.000000 -1.000000
vn 0.000000 0.000000 -1.000000
vn 0.000000 0.000000 -1.000000
vn 0.000000 0.000000 -1.000000
s off
g polySurface107 pCube53
usemtl initialShadingGroup
f 16/1/1 9/2/2 10/3/3 15/4/4
f 28/5/5 17/6/6 18/7/7 27/8/8
f 26/9/9 19/10/10 20/11/11 25/12/12
f 21/13/13 22/14/14 23/15/15 24/16/16
f 11/17/17 12/18/18 13/19/19 14/20/20
f 1/21/21 2/22/22 10/3/23 9/2/24
f 30/23/25 29/24/26 31/25/27 32/26/28
f 7/27/29 8/28/30 12/18/31 11/17/32
f 14/20/33 13/19/34 5/29/35 6/30/36
f 34/31/37 33/32/38 35/33/39 36/34/40
f 16/1/41 15/4/42 4/35/43 3/36/44
f 3/36/45 4/35/46 18/7/47 17/6/48
f 37/37/49 35/33/50 33/32/51 38/38/52
f 37/37/53 39/39/54 32/26/55 35/33/56
f 30/23/57 32/26/58 39/39/59 40/40/60
f 22/14/61 21/13/62 2/22/63 1/21/64
f 8/41/65 7/42/66 24/16/67 23/15/68
f 42/43/69 41/44/70 31/25/71 29/24/72
f 41/44/73 43/45/74 36/34/75 31/25/76
f 34/31/77 36/34/78 43/45/79 44/46/80
f 28/5/81 27/8/82 6/47/83 5/48/84
f 21/13/85 24/16/86 29/24/87 30/23/88
f 25/12/89 20/11/90 32/26/91 31/25/92
f 27/49/93 18/50/94 33/32/95 34/31/96
f 19/10/97 26/9/98 36/34/99 35/33/100
f 18/50/101 4/51/102 38/38/103 33/32/104
f 4/51/105 15/52/106 37/37/107 38/38/108
f 15/52/109 10/53/110 39/39/111 37/37/112
f 20/11/113 19/10/114 35/33/115 32/26/116
f 10/53/117 2/22/118 40/40/119 39/39/120
f 2/22/121 21/13/122 30/23/123 40/40/124
f 7/42/125 11/54/126 41/44/127 42/43/128
f 24/16/129 7/42/130 42/43/131 29/24/132
f 11/54/133 14/55/134 43/45/135 41/44/136
f 26/9/137 25/12/138 31/25/139 36/34/140
f 14/55/141 6/56/142 44/46/143 43/45/144
f 6/56/145 27/49/146 34/31/147 44/46/148
