# This file uses centimeters as units for non-parametric coordinates.

mtllib Chair01.mtl
g default
v 12.835391 2.119113 34.345720
v 7.410517 2.119113 28.920845
v 0.000000 2.119113 26.935203
v -7.410517 2.119113 28.920845
v -12.835391 2.119113 34.345720
v -14.821034 2.119113 41.756237
v -12.835391 2.119113 49.166753
v -7.410517 2.119113 54.591628
v 0.000000 2.119113 56.577270
v 7.410517 2.119113 54.591628
v 12.835391 2.119113 49.166753
v 14.821034 2.119113 41.756237
v 51.614770 23.055497 11.956436
v 29.799800 23.055497 -9.858533
v 0.000000 23.055497 -17.843364
v -29.799800 23.055497 -9.858533
v -51.614770 23.055497 11.956436
v -59.599601 23.055497 41.756237
v -51.614770 23.055497 71.556037
v -29.799800 23.055497 93.371006
v 0.000000 23.055497 101.355837
v 29.799800 23.055497 93.371006
v 51.614770 23.055497 71.556037
v 59.599601 23.055497 41.756237
v 42.685914 88.951804 17.111521
v 24.644715 88.951804 -0.929678
v 0.000000 88.951804 -7.533194
v -24.644715 88.951804 -0.929678
v -42.685914 88.951804 17.111521
v -49.289431 88.951804 41.756237
v -42.685914 88.951804 66.400952
v -24.644715 88.951804 84.442151
v 0.000000 88.951804 91.045667
v 24.644715 88.951804 84.442151
v 42.685914 88.951804 66.400952
v 49.289431 88.951804 41.756237
v 41.466967 88.970535 17.815274
v 23.940962 88.970535 0.289269
v 0.000000 88.970535 -6.125688
v -23.940962 88.970535 0.289269
v -41.466967 88.970535 17.815274
v -47.881925 88.970535 41.756237
v -41.466967 88.970535 65.697199
v -23.940962 88.970535 83.223204
v 0.000000 88.970535 89.638161
v 23.940962 88.970535 83.223204
v 41.466967 88.970535 65.697199
v 47.881925 88.970535 41.756237
v 9.759305 61.838836 36.410247
v 5.597287 61.838836 32.248228
v -0.088128 61.838836 30.724834
v -5.773548 61.838836 32.248228
v -9.935574 61.838836 36.410247
v -11.458973 61.838836 42.095661
v -9.935574 61.838836 47.781077
v -5.773548 61.838836 51.943092
v -0.088128 61.838836 53.466485
v 5.597287 61.838836 51.943092
v 9.759305 61.838836 47.781077
v 11.282702 61.838836 42.095661
v 0.000000 -0.000002 41.756237
v 51.614770 24.893889 11.956436
v 29.799800 24.893889 -9.858533
v 0.000000 24.893889 -17.843364
v -29.799800 24.893889 -9.858533
v -51.614770 24.893889 11.956436
v -59.599601 24.893889 41.756237
v -51.614770 24.893889 71.556037
v -29.799800 24.893889 93.371006
v 0.000000 24.893889 101.355837
v 29.799800 24.893889 93.371006
v 51.614770 24.893889 71.556037
v 59.599601 24.893889 41.756237
v 22.715411 55.355930 28.641489
v 26.229496 55.355930 41.756237
v 22.715411 55.355930 54.870985
v 13.114748 55.355930 64.471648
v 0.000000 55.355930 67.985733
v -13.114748 55.355930 64.471648
v -22.715411 55.355930 54.870985
v -26.229496 55.355930 41.756237
v -22.715411 55.355930 28.641489
v -13.114748 55.355930 19.040825
v 0.000000 55.355930 15.526741
v 13.114748 55.355930 19.040825
v 42.685914 86.962603 17.111521
v 49.289431 86.962603 41.756237
v 42.685914 86.962603 66.400952
v 24.644715 86.962603 84.442151
v 0.000000 86.962603 91.045667
v -24.644715 86.962603 84.442151
v -42.685914 86.962603 66.400952
v -49.289431 86.962603 41.756237
v -42.685914 86.962603 17.111521
v -24.644715 86.962603 -0.929678
v 0.000000 86.962603 -7.533194
v 24.644715 86.962603 -0.929678
v -7.391042 1.056770 41.756237
v 7.304917 1.044458 41.756237
v -4.175623 61.838836 42.095660
v -0.088130 61.838836 42.095660
v 3.999362 61.838836 42.095660
v 29.756376 71.369319 24.576388
v 17.179848 71.369319 11.999861
v 0.000000 71.369319 7.396540
v -17.179848 71.369319 11.999861
v -29.756376 71.369319 24.576388
v -34.359697 71.369319 41.756237
v -29.756376 71.369319 58.936085
v -17.179848 71.369319 71.512612
v 0.000000 71.369319 76.115934
v 17.179848 71.369319 71.512612
v 29.756376 71.369319 58.936085
v 34.359697 71.369319 41.756237
v 31.986473 40.889550 23.288835
v 18.467401 40.889550 9.769763
v 0.000000 40.889550 4.821434
v -18.467401 40.889550 9.769763
v -31.986473 40.889550 23.288835
v -36.934803 40.889550 41.756237
v -31.986473 40.889550 60.223638
v -18.467401 40.889550 73.742710
v 0.000000 40.889550 78.691040
v 18.467401 40.889550 73.742710
v 31.986473 40.889550 60.223638
v 36.934803 40.889550 41.756237
v 23.310855 54.205172 28.297708
v 26.917056 54.205172 41.756237
v 23.310855 54.205172 55.214765
v 13.458528 54.205172 65.067091
v 0.000000 54.205172 68.673293
v -13.458528 54.205172 65.067091
v -23.310855 54.205172 55.214765
v -26.917056 54.205172 41.756237
v -23.310855 54.205172 28.297708
v -13.458528 54.205172 18.445382
v 0.000000 54.205172 14.839180
v 13.458528 54.205172 18.445382
v 29.653217 75.404686 24.780219
v 34.247397 75.404686 41.925949
v 29.653217 75.404686 59.071679
v 17.101668 75.404686 71.623228
v -0.044063 75.404686 76.217406
v -17.189797 75.404686 71.623228
v -29.741352 75.404686 59.071679
v -34.335532 75.404686 41.925949
v -29.741352 75.404686 24.780219
v -17.189797 75.404686 12.228667
v -0.044063 75.404686 7.634489
v 17.101668 75.404686 12.228667
vt 0.545105 0.130208
vt 0.526042 0.111145
vt 0.500000 0.104167
vt 0.473958 0.111145
vt 0.454895 0.130208
vt 0.447917 0.156250
vt 0.454895 0.182292
vt 0.473958 0.201355
vt 0.500000 0.208333
vt 0.526042 0.201355
vt 0.545105 0.182292
vt 0.552083 0.156250
vt 0.635316 0.078125
vt 0.578125 0.020934
vt 0.500000 0.000000
vt 0.421875 0.020934
vt 0.364684 0.078125
vt 0.343750 0.156250
vt 0.364684 0.234375
vt 0.421875 0.291566
vt 0.500000 0.312500
vt 0.578125 0.291566
vt 0.635316 0.234375
vt 0.656250 0.156250
vt 0.375000 0.312500
vt 0.395833 0.312500
vt 0.416667 0.312500
vt 0.437500 0.312500
vt 0.458333 0.312500
vt 0.479167 0.312500
vt 0.500000 0.312500
vt 0.520833 0.312500
vt 0.541667 0.312500
vt 0.562500 0.312500
vt 0.583333 0.312500
vt 0.604167 0.312500
vt 0.625000 0.312500
vt 0.375000 0.688440
vt 0.395833 0.688440
vt 0.416667 0.688440
vt 0.437500 0.688440
vt 0.458333 0.688440
vt 0.479167 0.688440
vt 0.500000 0.688440
vt 0.520833 0.688440
vt 0.541667 0.688440
vt 0.562500 0.688440
vt 0.583333 0.688440
vt 0.604167 0.688440
vt 0.625000 0.688440
vt 0.635316 0.765625
vt 0.578125 0.708434
vt 0.500000 0.687500
vt 0.421875 0.708434
vt 0.364684 0.765625
vt 0.343750 0.843750
vt 0.364684 0.921875
vt 0.421875 0.979066
vt 0.500000 1.000000
vt 0.578125 0.979066
vt 0.635316 0.921875
vt 0.656250 0.843750
vt 0.590211 0.791667
vt 0.552083 0.753539
vt 0.500000 0.739583
vt 0.447917 0.753539
vt 0.409789 0.791667
vt 0.395833 0.843750
vt 0.409789 0.895833
vt 0.447917 0.933961
vt 0.500000 0.947917
vt 0.552083 0.933961
vt 0.590211 0.895833
vt 0.604167 0.843750
vt 0.545105 0.817708
vt 0.526042 0.798645
vt 0.500000 0.791667
vt 0.473958 0.798645
vt 0.454895 0.817708
vt 0.447917 0.843750
vt 0.454895 0.869792
vt 0.473958 0.888855
vt 0.500000 0.895833
vt 0.526042 0.888855
vt 0.545105 0.869792
vt 0.552083 0.843750
vt 0.500000 0.150000
vt 0.625000 0.325661
vt 0.375000 0.325661
vt 0.395833 0.325661
vt 0.416667 0.325661
vt 0.437500 0.325661
vt 0.458333 0.325661
vt 0.479167 0.325661
vt 0.500000 0.325661
vt 0.520833 0.325661
vt 0.541667 0.325661
vt 0.562500 0.325661
vt 0.583333 0.325661
vt 0.604167 0.325661
vt 0.625000 0.507050
vt 0.375000 0.507050
vt 0.604167 0.507050
vt 0.583333 0.507050
vt 0.562500 0.507050
vt 0.541667 0.507050
vt 0.520833 0.507050
vt 0.500000 0.507050
vt 0.479167 0.507050
vt 0.458333 0.507050
vt 0.437500 0.507050
vt 0.416667 0.507050
vt 0.395833 0.507050
vt 0.625000 0.679491
vt 0.375000 0.679491
vt 0.604167 0.679491
vt 0.583333 0.679491
vt 0.562500 0.679491
vt 0.541667 0.679491
vt 0.520833 0.679491
vt 0.500000 0.679491
vt 0.479167 0.679491
vt 0.458333 0.679491
vt 0.437500 0.679491
vt 0.416667 0.679491
vt 0.395833 0.679491
vt 0.474027 0.153117
vt 0.525671 0.153080
vt 0.473958 0.843750
vt 0.500000 0.843750
vt 0.526042 0.843750
vt 0.625000 0.576026
vt 0.375000 0.576026
vt 0.395833 0.576026
vt 0.416667 0.576026
vt 0.437500 0.576026
vt 0.458333 0.576026
vt 0.479167 0.576026
vt 0.500000 0.576026
vt 0.520833 0.576026
vt 0.541667 0.576026
vt 0.562500 0.576026
vt 0.583333 0.576026
vt 0.604167 0.576026
vt 0.625000 0.434494
vt 0.375000 0.434494
vt 0.395833 0.434494
vt 0.416667 0.434494
vt 0.437500 0.434494
vt 0.458333 0.434494
vt 0.479167 0.434494
vt 0.500000 0.434494
vt 0.520833 0.434494
vt 0.541667 0.434494
vt 0.562500 0.434494
vt 0.583333 0.434494
vt 0.604167 0.434494
vt 0.625000 0.502390
vt 0.375000 0.502390
vt 0.604167 0.502390
vt 0.583333 0.502390
vt 0.562500 0.502390
vt 0.541667 0.502390
vt 0.520833 0.502390
vt 0.500000 0.502390
vt 0.479167 0.502390
vt 0.458333 0.502390
vt 0.437500 0.502390
vt 0.416667 0.502390
vt 0.395833 0.502390
vt 0.567658 0.882812
vt 0.578125 0.843750
vt 0.567658 0.804688
vt 0.539062 0.776092
vt 0.500000 0.765625
vt 0.460938 0.776092
vt 0.432342 0.804688
vt 0.421875 0.843750
vt 0.432342 0.882812
vt 0.460938 0.911408
vt 0.500000 0.921875
vt 0.539062 0.911408
vn 0.204256 -0.914141 -0.350181
vn 0.239264 -0.878072 -0.414418
vn 0.414418 -0.878072 -0.239264
vn 0.355294 -0.911970 -0.205129
vn -0.000029 -0.915729 -0.401796
vn 0.000000 -0.878072 -0.478528
vn -0.204235 -0.914165 -0.350129
vn -0.239264 -0.878072 -0.414418
vn -0.355379 -0.911925 -0.205178
vn -0.414418 -0.878072 -0.239264
vn -0.409669 -0.912234 -0.000000
vn -0.478528 -0.878072 0.000000
vn -0.355379 -0.911925 0.205178
vn -0.414418 -0.878072 0.239264
vn -0.204235 -0.914165 0.350129
vn -0.239264 -0.878072 0.414418
vn -0.000029 -0.915729 0.401796
vn 0.000000 -0.878072 0.478528
vn 0.204256 -0.914141 0.350181
vn 0.239264 -0.878072 0.414418
vn 0.355294 -0.911970 0.205129
vn 0.414418 -0.878072 0.239264
vn 0.409563 -0.912282 0.000000
vn 0.478528 -0.878072 0.000000
vn 0.550361 0.772099 -0.317751
vn 0.317751 0.772099 -0.550361
vn 0.401233 0.596699 -0.694955
vn 0.694955 0.596699 -0.401233
vn 0.000000 0.772099 -0.635502
vn -0.000000 0.596699 -0.802465
vn -0.317751 0.772099 -0.550361
vn -0.401233 0.596699 -0.694955
vn -0.550361 0.772099 -0.317751
vn -0.694955 0.596699 -0.401233
vn -0.635502 0.772099 0.000000
vn -0.802465 0.596699 0.000000
vn -0.550361 0.772099 0.317751
vn -0.694955 0.596699 0.401233
vn -0.317751 0.772099 0.550361
vn -0.401233 0.596699 0.694955
vn 0.000000 0.772099 0.635502
vn 0.000000 0.596699 0.802465
vn 0.317751 0.772099 0.550361
vn 0.401233 0.596699 0.694955
vn 0.550361 0.772099 0.317751
vn 0.694955 0.596699 0.401233
vn 0.635502 0.772099 -0.000000
vn 0.802465 0.596699 -0.000000
vn 0.750186 0.499628 -0.433120
vn 0.433120 0.499627 -0.750187
vn -0.323145 0.762655 0.560299
vn -0.560698 0.761726 0.324642
vn 0.000000 0.499627 -0.866241
vn -0.000281 0.762669 0.646789
vn -0.433119 0.499627 -0.750187
vn 0.323245 0.761765 0.561451
vn -0.750186 0.499628 -0.433120
vn 0.562133 0.760171 0.325802
vn -0.866240 0.499629 0.000000
vn 0.651902 0.758303 0.001098
vn -0.750186 0.499628 0.433120
vn 0.566622 0.756659 -0.326201
vn -0.433120 0.499627 0.750187
vn 0.327726 0.755694 -0.567029
vn 0.000000 0.499627 0.866241
vn -0.000287 0.755679 -0.654942
vn 0.433119 0.499627 0.750187
vn -0.327621 0.756619 -0.565855
vn 0.750186 0.499628 0.433120
vn -0.565165 0.758248 -0.325036
vn 0.866240 0.499629 -0.000000
vn -0.649785 0.760117 0.001091
vn -0.317098 0.773309 0.549038
vn -0.550119 0.772452 0.317314
vn 0.000091 0.773322 0.634013
vn 0.317735 0.772488 0.549825
vn 0.551670 0.771020 0.318102
vn 0.638883 0.769304 -0.000355
vn 0.554724 0.767798 -0.320574
vn 0.320789 0.766915 -0.555820
vn 0.000093 0.766902 -0.641765
vn -0.320144 0.767761 -0.555023
vn -0.553165 0.769254 -0.319778
vn -0.636871 0.770971 -0.000352
vn -0.094803 -0.995496 -0.000000
vn -0.000387 -1.000000 -0.000000
vn 0.094754 -0.995501 -0.000000
vn 0.000111 0.889719 0.456509
vn 0.230090 0.888106 0.397902
vn 0.000000 1.000000 0.000000
vn 0.000000 1.000000 0.000000
vn -0.465283 0.885162 -0.000438
vn 0.000000 1.000000 0.000000
vn -0.231275 0.886305 -0.401216
vn -0.403836 0.884488 -0.233661
vn 0.317414 0.772653 -0.549778
vn 0.549778 0.772653 -0.317415
vn 0.000000 0.772653 -0.634829
vn -0.317414 0.772653 -0.549778
vn -0.549778 0.772653 -0.317414
vn -0.634829 0.772653 0.000000
vn -0.549778 0.772653 0.317414
vn -0.317414 0.772653 0.549778
vn 0.000000 0.772653 0.634829
vn 0.317414 0.772653 0.549778
vn 0.549778 0.772653 0.317414
vn 0.634829 0.772653 0.000000
vn 0.786302 -0.617843 0.000000
vn 0.680957 -0.617843 -0.393151
vn 0.670169 -0.633375 -0.386922
vn 0.773845 -0.633375 0.000000
vn 0.680957 -0.617843 0.393151
vn 0.670169 -0.633375 0.386922
vn 0.393151 -0.617843 0.680957
vn 0.386922 -0.633375 0.670169
vn -0.000000 -0.617843 0.786302
vn 0.000000 -0.633375 0.773845
vn -0.393151 -0.617843 0.680957
vn -0.386922 -0.633376 0.670169
vn -0.680957 -0.617843 0.393151
vn -0.670169 -0.633375 0.386922
vn -0.786302 -0.617843 -0.000000
vn -0.773845 -0.633375 -0.000000
vn -0.680957 -0.617843 -0.393151
vn -0.670169 -0.633375 -0.386922
vn -0.393151 -0.617843 -0.680957
vn -0.386922 -0.633375 -0.670169
vn 0.000000 -0.617843 -0.786302
vn 0.000000 -0.633375 -0.773845
vn 0.393151 -0.617843 -0.680957
vn 0.386922 -0.633376 -0.670169
vn 0.403133 0.885181 0.232246
vn 0.466526 0.884507 -0.000440
vn 0.000113 0.887313 -0.461167
vn 0.404828 0.883917 -0.234104
vn 0.231753 0.885984 -0.401650
vn -0.402147 0.885744 0.231809
vn -0.229618 0.888420 0.397474
vn 0.792217 -0.403968 -0.457387
vn 0.457386 -0.403968 -0.792217
vn -0.000000 -0.403968 -0.914773
vn -0.457387 -0.403968 -0.792217
vn -0.792217 -0.403968 -0.457386
vn -0.914773 -0.403968 0.000000
vn -0.792217 -0.403968 0.457387
vn -0.457386 -0.403968 0.792217
vn 0.000000 -0.403968 0.914773
vn 0.457387 -0.403968 0.792217
vn 0.792217 -0.403968 0.457386
vn 0.914773 -0.403968 -0.000000
s 1
g pCylinder1
usemtl initialShadingGroup
f 2/2/1 14/14/2 13/13/3 1/1/4
f 3/3/5 15/15/6 14/14/2 2/2/1
f 4/4/7 16/16/8 15/15/6 3/3/5
f 5/5/9 17/17/10 16/16/8 4/4/7
f 6/6/11 18/18/12 17/17/10 5/5/9
f 7/7/13 19/19/14 18/18/12 6/6/11
f 8/8/15 20/20/16 19/19/14 7/7/13
f 9/9/17 21/21/18 20/20/16 8/8/15
f 10/10/19 22/22/20 21/21/18 9/9/17
f 11/11/21 23/23/22 22/22/20 10/10/19
f 12/12/23 24/24/24 23/23/22 11/11/21
f 1/1/4 13/13/3 24/24/24 12/12/23
f 115/146/25 116/147/26 138/170/27 127/159/28
f 116/147/26 117/148/29 137/169/30 138/170/27
f 117/148/29 118/149/31 136/168/32 137/169/30
f 118/149/31 119/150/33 135/167/34 136/168/32
f 119/150/33 120/151/35 134/166/36 135/167/34
f 120/151/35 121/152/37 133/165/38 134/166/36
f 121/152/37 122/153/39 132/164/40 133/165/38
f 122/153/39 123/154/41 131/163/42 132/164/40
f 123/154/41 124/155/43 130/162/44 131/163/42
f 124/155/43 125/156/45 129/161/46 130/162/44
f 125/156/45 126/157/47 128/160/48 129/161/46
f 126/157/47 115/145/25 127/158/28 128/160/48
f 25/61/49 26/60/50 38/72/51 37/73/52
f 26/60/50 27/59/53 39/71/54 38/72/51
f 27/59/53 28/58/55 40/70/56 39/71/54
f 28/58/55 29/57/57 41/69/58 40/70/56
f 29/57/57 30/56/59 42/68/60 41/69/58
f 30/56/59 31/55/61 43/67/62 42/68/60
f 31/55/61 32/54/63 44/66/64 43/67/62
f 32/54/63 33/53/65 45/65/66 44/66/64
f 33/53/65 34/52/67 46/64/68 45/65/66
f 34/52/67 35/51/69 47/63/70 46/64/68
f 35/51/69 36/62/71 48/74/72 47/63/70
f 36/62/71 25/61/49 37/73/52 48/74/72
f 37/73/52 38/72/51 150/182/73 139/171/74
f 38/72/51 39/71/54 149/181/75 150/182/73
f 39/71/54 40/70/56 148/180/76 149/181/75
f 40/70/56 41/69/58 147/179/77 148/180/76
f 41/69/58 42/68/60 146/178/78 147/179/77
f 42/68/60 43/67/62 145/177/79 146/178/78
f 43/67/62 44/66/64 144/176/80 145/177/79
f 44/66/64 45/65/66 143/175/81 144/176/80
f 45/65/66 46/64/68 142/174/82 143/175/81
f 46/64/68 47/63/70 141/173/83 142/174/82
f 47/63/70 48/74/72 140/172/84 141/173/83
f 48/74/72 37/73/52 139/171/74 140/172/84
f 98/127/85 4/4/7 3/3/5 61/87/86
f 8/8/15 98/127/85 61/87/86 9/9/17
f 11/11/21 10/10/19 99/128/87 12/12/23
f 2/2/1 1/1/4 12/12/23 99/128/87
f 51/83/88 52/82/89 100/129/90 101/130/91
f 60/86/92 102/131/93 58/76/94 59/75/95
f 13/25/3 14/26/2 63/90/96 62/89/97
f 14/26/2 15/27/6 64/91/98 63/90/96
f 15/27/6 16/28/8 65/92/99 64/91/98
f 16/28/8 17/29/10 66/93/100 65/92/99
f 17/29/10 18/30/12 67/94/101 66/93/100
f 18/30/12 19/31/14 68/95/102 67/94/101
f 19/31/14 20/32/16 69/96/103 68/95/102
f 20/32/16 21/33/18 70/97/104 69/96/103
f 21/33/18 22/34/20 71/98/105 70/97/104
f 22/34/20 23/35/22 72/99/106 71/98/105
f 23/35/22 24/36/24 73/100/107 72/99/106
f 24/36/24 13/37/3 62/88/97 73/100/107
f 114/144/108 103/132/109 86/114/110 87/116/111
f 113/143/112 114/144/108 87/116/111 88/117/113
f 112/142/114 113/143/112 88/117/113 89/118/115
f 111/141/116 112/142/114 89/118/115 90/119/117
f 110/140/118 111/141/116 90/119/117 91/120/119
f 109/139/120 110/140/118 91/120/119 92/121/121
f 108/138/122 109/139/120 92/121/121 93/122/123
f 107/137/124 108/138/122 93/122/123 94/123/125
f 106/136/126 107/137/124 94/123/125 95/124/127
f 105/135/128 106/136/126 95/124/127 96/125/129
f 104/134/130 105/135/128 96/125/129 97/126/131
f 103/133/109 104/134/130 97/126/131 86/115/110
f 87/116/111 86/114/110 25/50/49 36/49/71
f 88/117/113 87/116/111 36/49/71 35/48/69
f 89/118/115 88/117/113 35/48/69 34/47/67
f 90/119/117 89/118/115 34/47/67 33/46/65
f 91/120/119 90/119/117 33/46/65 32/45/63
f 92/121/121 91/120/119 32/45/63 31/44/61
f 93/122/123 92/121/121 31/44/61 30/43/59
f 94/123/125 93/122/123 30/43/59 29/42/57
f 95/124/127 94/123/125 29/42/57 28/41/55
f 96/125/129 95/124/127 28/41/55 27/40/53
f 97/126/131 96/125/129 27/40/53 26/39/50
f 86/115/110 97/126/131 26/39/50 25/38/49
f 8/8/15 7/7/13 6/6/11 98/127/85
f 5/5/9 4/4/7 98/127/85 6/6/11
f 99/128/87 10/10/19 9/9/17 61/87/86
f 2/2/1 99/128/87 61/87/86 3/3/5
f 52/82/89 53/81/132 54/80/133 100/129/90
f 102/131/93 101/130/91 57/77/134 58/76/94
f 100/129/90 54/80/133 55/79/135 56/78/136
f 101/130/91 100/129/90 56/78/136 57/77/134
f 60/86/92 49/85/137 50/84/138 102/131/93
f 50/84/138 51/83/88 101/130/91 102/131/93
f 74/102/139 85/113/140 104/134/130 103/133/109
f 85/113/140 84/112/141 105/135/128 104/134/130
f 84/112/141 83/111/142 106/136/126 105/135/128
f 83/111/142 82/110/143 107/137/124 106/136/126
f 82/110/143 81/109/144 108/138/122 107/137/124
f 81/109/144 80/108/145 109/139/120 108/138/122
f 80/108/145 79/107/146 110/140/118 109/139/120
f 79/107/146 78/106/147 111/141/116 110/140/118
f 78/106/147 77/105/148 112/142/114 111/141/116
f 77/105/148 76/104/149 113/143/112 112/142/114
f 76/104/149 75/103/150 114/144/108 113/143/112
f 75/103/150 74/101/139 103/132/109 114/144/108
f 62/89/97 63/90/96 116/147/26 115/146/25
f 63/90/96 64/91/98 117/148/29 116/147/26
f 64/91/98 65/92/99 118/149/31 117/148/29
f 65/92/99 66/93/100 119/150/33 118/149/31
f 66/93/100 67/94/101 120/151/35 119/150/33
f 67/94/101 68/95/102 121/152/37 120/151/35
f 68/95/102 69/96/103 122/153/39 121/152/37
f 69/96/103 70/97/104 123/154/41 122/153/39
f 70/97/104 71/98/105 124/155/43 123/154/41
f 71/98/105 72/99/106 125/156/45 124/155/43
f 72/99/106 73/100/107 126/157/47 125/156/45
f 73/100/107 62/88/97 115/145/25 126/157/47
f 128/160/48 127/158/28 74/101/139 75/103/150
f 129/161/46 128/160/48 75/103/150 76/104/149
f 130/162/44 129/161/46 76/104/149 77/105/148
f 131/163/42 130/162/44 77/105/148 78/106/147
f 132/164/40 131/163/42 78/106/147 79/107/146
f 133/165/38 132/164/40 79/107/146 80/108/145
f 134/166/36 133/165/38 80/108/145 81/109/144
f 135/167/34 134/166/36 81/109/144 82/110/143
f 136/168/32 135/167/34 82/110/143 83/111/142
f 137/169/30 136/168/32 83/111/142 84/112/141
f 138/170/27 137/169/30 84/112/141 85/113/140
f 127/159/28 138/170/27 85/113/140 74/102/139
f 140/172/84 139/171/74 49/85/137 60/86/92
f 141/173/83 140/172/84 60/86/92 59/75/95
f 142/174/82 141/173/83 59/75/95 58/76/94
f 143/175/81 142/174/82 58/76/94 57/77/134
f 144/176/80 143/175/81 57/77/134 56/78/136
f 145/177/79 144/176/80 56/78/136 55/79/135
f 146/178/78 145/177/79 55/79/135 54/80/133
f 147/179/77 146/178/78 54/80/133 53/81/132
f 148/180/76 147/179/77 53/81/132 52/82/89
f 149/181/75 148/180/76 52/82/89 51/83/88
f 150/182/73 149/181/75 51/83/88 50/84/138
f 139/171/74 150/182/73 50/84/138 49/85/137
