# This file uses centimeters as units for non-parametric coordinates.

mtllib columns01.mtl
g default
v 216.495676 -2.693074 -586.899990
v 315.501316 -2.693074 -586.899990
v 216.495676 386.269712 -586.899990
v 315.501316 386.269712 -586.899990
v 216.495676 386.269712 -687.626698
v 315.501316 386.269712 -687.626698
v 216.495676 -2.693074 -687.626698
v 315.501316 -2.693074 -687.626698
vt 0.375000 0.000000
vt 0.625000 0.000000
vt 0.625000 0.250000
vt 0.375000 0.250000
vt 0.625000 0.500000
vt 0.375000 0.500000
vt 0.625000 0.750000
vt 0.375000 0.750000
vt 0.875000 0.000000
vt 0.875000 0.250000
vt 0.125000 0.000000
vt 0.125000 0.250000
vn 0.000000 0.000000 1.000000
vn 0.000000 0.000000 1.000000
vn 0.000000 0.000000 1.000000
vn 0.000000 0.000000 1.000000
vn 0.000000 0.000000 -1.000000
vn 0.000000 0.000000 -1.000000
vn 0.000000 0.000000 -1.000000
vn 0.000000 0.000000 -1.000000
vn 1.000000 0.000000 0.000000
vn 1.000000 0.000000 0.000000
vn 1.000000 0.000000 0.000000
vn 1.000000 0.000000 0.000000
vn -1.000000 0.000000 0.000000
vn -1.000000 0.000000 0.000000
vn -1.000000 0.000000 0.000000
vn -1.000000 0.000000 0.000000
s off
g polySurface283 pCube53
usemtl initialShadingGroup
f 1/1/1 2/2/2 4/3/3 3/4/4
f 5/6/5 6/5/6 8/7/7 7/8/8
f 2/2/9 8/9/10 6/10/11 4/3/12
f 7/11/13 1/1/14 3/4/15 5/12/16
g default
v 1001.262838 -2.693074 -573.490491
v 1100.268478 -2.693074 -573.490491
v 1001.262838 386.269712 -573.490491
v 1100.268478 386.269712 -573.490491
v 1001.262838 386.269712 -674.217199
v 1100.268478 386.269712 -674.217199
v 1001.262838 -2.693074 -674.217199
v 1100.268478 -2.693074 -674.217199
vt 0.375000 0.000000
vt 0.625000 0.000000
vt 0.625000 0.250000
vt 0.375000 0.250000
vt 0.625000 0.500000
vt 0.375000 0.500000
vt 0.625000 0.750000
vt 0.375000 0.750000
vt 0.875000 0.000000
vt 0.875000 0.250000
vt 0.125000 0.000000
vt 0.125000 0.250000
vn 0.000000 0.000000 1.000000
vn 0.000000 0.000000 1.000000
vn 0.000000 0.000000 1.000000
vn 0.000000 0.000000 1.000000
vn 0.000000 0.000000 -1.000000
vn 0.000000 0.000000 -1.000000
vn 0.000000 0.000000 -1.000000
vn 0.000000 0.000000 -1.000000
vn 1.000000 0.000000 0.000000
vn 1.000000 0.000000 0.000000
vn 1.000000 0.000000 0.000000
vn 1.000000 0.000000 0.000000
vn -1.000000 0.000000 0.000000
vn -1.000000 0.000000 0.000000
vn -1.000000 0.000000 0.000000
vn -1.000000 0.000000 0.000000
s off
g pCube53 polySurface201
usemtl initialShadingGroup
f 9/13/17 10/14/18 12/15/19 11/16/20
f 13/18/21 14/17/22 16/19/23 15/20/24
f 10/14/25 16/21/26 14/22/27 12/15/28
f 15/23/29 9/13/30 11/16/31 13/24/32
g default
v -388.053392 -2.693074 -664.301872
v -283.048982 -2.693074 -664.301872
v -388.053392 352.600613 -664.301872
v -283.048982 352.600613 -664.301872
v -388.053392 352.600613 -771.131693
v -283.048982 352.600613 -771.131693
v -388.053392 -2.693074 -771.131693
v -283.048982 -2.693074 -771.131693
vt 0.375000 0.000000
vt 0.625000 0.000000
vt 0.625000 0.250000
vt 0.375000 0.250000
vt 0.625000 0.500000
vt 0.375000 0.500000
vt 0.625000 0.750000
vt 0.375000 0.750000
vt 0.875000 0.000000
vt 0.875000 0.250000
vt 0.125000 0.000000
vt 0.125000 0.250000
vn 0.000000 0.000000 1.000000
vn 0.000000 0.000000 1.000000
vn 0.000000 0.000000 1.000000
vn 0.000000 0.000000 1.000000
vn 0.000000 0.000000 -1.000000
vn 0.000000 0.000000 -1.000000
vn 0.000000 0.000000 -1.000000
vn 0.000000 0.000000 -1.000000
vn 1.000000 0.000000 0.000000
vn 1.000000 0.000000 0.000000
vn 1.000000 0.000000 0.000000
vn 1.000000 0.000000 0.000000
vn -1.000000 0.000000 0.000000
vn -1.000000 0.000000 0.000000
vn -1.000000 0.000000 0.000000
vn -1.000000 0.000000 0.000000
s off
g pCube53 polySurface200
usemtl initialShadingGroup
f 17/25/33 18/26/34 20/27/35 19/28/36
f 21/30/37 22/29/38 24/31/39 23/32/40
f 18/26/41 24/33/42 22/34/43 20/27/44
f 23/35/45 17/25/46 19/28/47 21/36/48
g default
v -495.724884 -2.693074 -664.301872
v -390.720383 -2.693074 -664.301872
v -495.724884 352.600613 -664.301872
v -390.720383 352.600613 -664.301872
v -495.724884 352.600613 -771.131693
v -390.720383 352.600613 -771.131693
v -495.724884 -2.693074 -771.131693
v -390.720383 -2.693074 -771.131693
vt 0.375000 0.000000
vt 0.625000 0.000000
vt 0.625000 0.250000
vt 0.375000 0.250000
vt 0.625000 0.500000
vt 0.375000 0.500000
vt 0.625000 0.750000
vt 0.375000 0.750000
vt 0.875000 0.000000
vt 0.875000 0.250000
vt 0.125000 0.000000
vt 0.125000 0.250000
vn 0.000000 0.000000 1.000000
vn 0.000000 0.000000 1.000000
vn 0.000000 0.000000 1.000000
vn 0.000000 0.000000 1.000000
vn 0.000000 0.000000 -1.000000
vn 0.000000 0.000000 -1.000000
vn 0.000000 0.000000 -1.000000
vn 0.000000 0.000000 -1.000000
vn 1.000000 0.000000 0.000000
vn 1.000000 0.000000 0.000000
vn 1.000000 0.000000 0.000000
vn 1.000000 0.000000 0.000000
vn -1.000000 0.000000 0.000000
vn -1.000000 0.000000 0.000000
vn -1.000000 0.000000 0.000000
vn -1.000000 0.000000 0.000000
s off
g pCube53 polySurface282
usemtl initialShadingGroup
f 25/37/49 26/38/50 28/39/51 27/40/52
f 29/42/53 30/41/54 32/43/55 31/44/56
f 26/38/57 32/45/58 30/46/59 28/39/60
f 31/47/61 25/37/62 27/40/63 29/48/64
g default
v -267.653684 -2.693074 -1396.411408
v -137.814708 -2.693074 -1396.411408
v -267.653684 352.600613 -1396.411408
v -137.814708 352.600613 -1396.411408
v -267.653684 352.600613 -1528.507566
v -137.814708 352.600613 -1528.507566
v -267.653684 -2.693074 -1528.507566
v -137.814708 -2.693074 -1528.507566
vt 0.375000 0.000000
vt 0.625000 0.000000
vt 0.625000 0.250000
vt 0.375000 0.250000
vt 0.625000 0.500000
vt 0.375000 0.500000
vt 0.625000 0.750000
vt 0.375000 0.750000
vt 0.875000 0.000000
vt 0.875000 0.250000
vt 0.125000 0.000000
vt 0.125000 0.250000
vn 0.000000 0.000000 1.000000
vn 0.000000 0.000000 1.000000
vn 0.000000 0.000000 1.000000
vn 0.000000 0.000000 1.000000
vn 0.000000 0.000000 -1.000000
vn 0.000000 0.000000 -1.000000
vn 0.000000 0.000000 -1.000000
vn 0.000000 0.000000 -1.000000
vn 1.000000 0.000000 0.000000
vn 1.000000 0.000000 0.000000
vn 1.000000 0.000000 0.000000
vn 1.000000 0.000000 0.000000
vn -1.000000 0.000000 0.000000
vn -1.000000 0.000000 0.000000
vn -1.000000 0.000000 0.000000
vn -1.000000 0.000000 0.000000
s off
g pCube53 polySurface202
usemtl initialShadingGroup
f 33/49/65 34/50/66 36/51/67 35/52/68
f 37/54/69 38/53/70 40/55/71 39/56/72
f 34/50/73 40/57/74 38/58/75 36/51/76
f 39/59/77 33/49/78 35/52/79 37/60/80
g default
v -496.480801 -2.693074 -2012.028315
v -346.788755 -2.693074 -2012.028315
v -496.480801 352.600613 -2012.028315
v -346.788755 352.600613 -2012.028315
v -496.480801 352.600613 -2156.414175
v -346.788755 352.600613 -2156.414175
v -496.480801 -2.693074 -2156.414175
v -346.788755 -2.693074 -2156.414175
vt 0.375000 0.000000
vt 0.625000 0.000000
vt 0.625000 0.250000
vt 0.375000 0.250000
vt 0.625000 0.500000
vt 0.375000 0.500000
vt 0.625000 0.750000
vt 0.375000 0.750000
vt 0.875000 0.000000
vt 0.875000 0.250000
vt 0.125000 0.000000
vt 0.125000 0.250000
vn 0.000000 0.000000 1.000000
vn 0.000000 0.000000 1.000000
vn 0.000000 0.000000 1.000000
vn 0.000000 0.000000 1.000000
vn 0.000000 0.000000 -1.000000
vn 0.000000 0.000000 -1.000000
vn 0.000000 0.000000 -1.000000
vn 0.000000 0.000000 -1.000000
vn 1.000000 0.000000 0.000000
vn 1.000000 0.000000 0.000000
vn 1.000000 0.000000 0.000000
vn 1.000000 0.000000 0.000000
vn -1.000000 0.000000 0.000000
vn -1.000000 0.000000 0.000000
vn -1.000000 0.000000 0.000000
vn -1.000000 0.000000 0.000000
s off
g pCube53 polySurface172
usemtl initialShadingGroup
f 41/61/81 42/62/82 44/63/83 43/64/84
f 45/66/85 46/65/86 48/67/87 47/68/88
f 42/62/89 48/69/90 46/70/91 44/63/92
f 47/71/93 41/61/94 43/64/95 45/72/96
g default
v -1121.806810 -2.693074 -2126.644774
v -1021.537936 -2.693074 -2126.644774
v -1121.806810 352.600613 -2126.644774
v -1021.537936 352.600613 -2126.644774
v -1121.806810 352.600613 -2205.802627
v -1021.537936 352.600613 -2205.802627
v -1121.806810 -2.693074 -2205.802627
v -1021.537936 -2.693074 -2205.802627
vt 0.375000 0.000000
vt 0.625000 0.000000
vt 0.625000 0.250000
vt 0.375000 0.250000
vt 0.625000 0.500000
vt 0.375000 0.500000
vt 0.625000 0.750000
vt 0.375000 0.750000
vt 0.875000 0.000000
vt 0.875000 0.250000
vt 0.125000 0.000000
vt 0.125000 0.250000
vn 0.000000 0.000000 1.000000
vn 0.000000 0.000000 1.000000
vn 0.000000 0.000000 1.000000
vn 0.000000 0.000000 1.000000
vn 0.000000 0.000000 -1.000000
vn 0.000000 0.000000 -1.000000
vn 0.000000 0.000000 -1.000000
vn 0.000000 0.000000 -1.000000
vn 1.000000 0.000000 0.000000
vn 1.000000 0.000000 0.000000
vn 1.000000 0.000000 0.000000
vn 1.000000 0.000000 0.000000
vn -1.000000 0.000000 0.000000
vn -1.000000 0.000000 0.000000
vn -1.000000 0.000000 0.000000
vn -1.000000 0.000000 0.000000
s off
g pCube53 polySurface171
usemtl initialShadingGroup
f 49/73/97 50/74/98 52/75/99 51/76/100
f 53/78/101 54/77/102 56/79/103 55/80/104
f 50/74/105 56/81/106 54/82/107 52/75/108
f 55/83/109 49/73/110 51/76/111 53/84/112
