# This file uses centimeters as units for non-parametric coordinates.

mtllib micro01.mtl
g default
v 409.640421 159.531620 -2046.357281
v 442.606866 159.531620 -2048.415164
v 409.640421 192.562243 -2046.357281
v 442.606866 192.562243 -2048.415164
v 406.335046 192.562243 -2099.336229
v 439.300763 192.562243 -2101.397028
v 406.335046 159.531620 -2099.336229
v 439.300763 159.531620 -2101.397028
v 406.997146 192.562243 -2088.729869
v 439.964321 192.562243 -2090.793584
v 439.964321 159.531620 -2090.793584
v 406.997146 159.531620 -2088.729869
v 409.113511 192.562243 -2054.824107
v 442.079979 192.562243 -2056.884906
v 442.079979 159.531620 -2056.884906
v 409.113511 159.531620 -2054.824107
v 409.640421 185.956119 -2046.357281
v 442.606866 185.956119 -2048.415164
v 442.079979 185.956119 -2056.888005
v 439.964321 185.956119 -2090.793584
v 439.300763 185.956119 -2101.397028
v 406.335046 185.956119 -2099.336229
v 406.997146 185.956119 -2088.729869
v 409.113511 185.956119 -2054.824107
v 409.640421 167.458972 -2046.357281
v 442.606866 167.458972 -2048.415164
v 442.079979 167.458972 -2056.888005
v 439.964321 167.458972 -2090.793584
v 439.300763 167.458972 -2101.397028
v 406.335046 167.458972 -2099.336229
v 406.997146 167.458972 -2088.729869
v 409.113511 167.458972 -2054.824107
v 408.706391 184.109838 -2085.448666
v 410.237318 184.109838 -2060.927221
v 408.706391 169.695570 -2085.448666
v 410.237318 169.695570 -2060.927221
v 407.717683 185.175573 -2087.351446
v 407.717683 168.404530 -2087.351446
v 409.002903 168.404530 -2056.575795
v 409.002903 185.175573 -2056.575795
v 442.079979 180.406969 -2056.888005
v 442.606866 180.406969 -2048.415164
v 409.640421 180.406969 -2046.357281
v 409.113511 180.406969 -2054.824107
v 409.002903 180.144254 -2056.575795
v 410.237318 179.785558 -2060.927221
v 408.706391 179.785558 -2085.448666
v 407.717683 180.144254 -2087.351446
v 406.997146 180.406969 -2088.729869
v 406.335046 180.406969 -2099.336229
v 439.300763 180.406969 -2101.397028
v 439.964321 180.406969 -2090.793584
v 409.640421 173.008110 -2046.357281
v 442.606866 173.008110 -2048.415164
v 442.079979 173.008110 -2056.888005
v 439.964321 173.008110 -2090.793584
v 439.300763 173.008110 -2101.397028
v 406.335046 173.008110 -2099.336229
v 406.997146 173.008110 -2088.729869
v 407.717683 173.435848 -2087.351446
v 408.706391 174.019839 -2085.448666
v 410.237318 174.019839 -2060.927221
v 409.002903 173.435848 -2056.575795
v 409.113511 173.008110 -2054.824107
v 408.409218 184.429554 -2086.028431
v 408.409218 179.893170 -2086.028431
v 408.409218 173.844655 -2086.028431
v 408.409218 169.308259 -2086.028431
v 409.864439 169.308259 -2059.613501
v 409.864439 173.844655 -2059.613501
v 409.864439 179.893170 -2059.613501
v 409.864439 184.429554 -2059.613501
v 407.993008 184.877159 -2086.826906
v 407.993008 180.043818 -2086.826906
v 407.993008 173.599357 -2086.826906
v 407.993008 168.766017 -2086.826906
v 409.351176 168.766017 -2057.799480
v 409.351176 173.599357 -2057.799480
v 409.351883 180.043818 -2057.799480
v 409.351176 184.877159 -2057.799480
v 410.779287 173.844655 -2057.398876
v 410.262356 173.599357 -2055.570274
v 410.779287 179.893170 -2057.398876
v 410.262356 180.043818 -2055.570274
v 409.150828 192.562243 -2054.229215
v 442.115110 192.562243 -2056.284182
v 442.115110 185.956119 -2056.284182
v 442.115110 180.406969 -2056.284182
v 442.115110 173.008110 -2056.284182
v 442.115110 167.458972 -2056.284182
v 442.115110 159.531620 -2056.284182
v 409.150828 159.531620 -2054.229215
v 409.150851 167.458972 -2054.229215
v 409.150851 173.008110 -2054.229215
v 409.150851 180.406969 -2054.229215
v 409.150851 185.956119 -2054.229215
v 406.335046 192.058366 -2099.336229
v 439.300763 192.058366 -2101.397028
v 439.964321 192.058366 -2090.793584
v 442.079979 192.058366 -2056.884906
v 442.115110 192.058366 -2056.284182
v 442.606866 192.058366 -2048.415164
v 409.640421 192.058366 -2046.357281
v 409.150828 192.058366 -2054.229215
v 409.113511 192.058366 -2054.824107
v 406.997146 192.058366 -2088.729869
v 409.640421 160.108343 -2046.357281
v 442.606866 160.108343 -2048.415164
v 442.115110 160.108354 -2056.284182
v 442.079979 160.108354 -2056.884906
v 439.964321 160.108354 -2090.793584
v 439.300763 160.108354 -2101.397028
v 406.335046 160.108354 -2099.336229
v 406.997146 160.108343 -2088.729869
v 409.113511 160.108343 -2054.824107
v 409.150828 160.108343 -2054.229215
v 413.932681 192.058366 -2054.536686
v 413.896821 192.058366 -2055.137410
v 413.896821 185.956119 -2055.137410
v 413.932681 185.956119 -2054.536686
v 413.896821 173.008110 -2055.137410
v 413.896821 180.406969 -2055.137410
v 413.932681 173.008110 -2054.536686
v 413.932681 180.406969 -2054.536686
v 413.896821 160.108354 -2055.137410
v 413.932681 160.108354 -2054.536686
v 413.932681 167.458972 -2054.536686
v 413.896821 167.458972 -2055.137410
vt 0.375000 0.200000
vt 0.625000 0.200000
vt 0.625000 0.246186
vt 0.375000 0.246186
vt 0.625000 0.450000
vt 0.625000 0.500000
vt 0.375000 0.500000
vt 0.375000 0.450000
vt 0.375000 0.503814
vt 0.625000 0.503814
vt 0.625000 0.550000
vt 0.375000 0.550000
vt 0.625000 0.750000
vt 0.625000 0.800000
vt 0.375000 0.800000
vt 0.375000 0.750000
vt 0.875000 0.246186
vt 0.825000 0.246186
vt 0.825000 0.200000
vt 0.875000 0.200000
vt 0.125000 0.200000
vt 0.175000 0.200000
vt 0.175000 0.246186
vt 0.125000 0.246186
vt 0.625000 0.290000
vt 0.375000 0.290000
vt 0.665000 0.246186
vt 0.665000 0.200000
vt 0.625000 0.960000
vt 0.375000 0.960000
vt 0.335000 0.246186
vt 0.335000 0.200000
vt 0.625000 0.287178
vt 0.375000 0.287178
vt 0.662178 0.246186
vt 0.662178 0.200000
vt 0.625000 0.962822
vt 0.375000 0.962822
vt 0.337822 0.246186
vt 0.335000 0.246186
vt 0.335000 0.200000
vt 0.337822 0.200000
vt 0.625000 0.102000
vt 0.625000 0.158000
vt 0.375000 0.158000
vt 0.375000 0.102000
vt 0.662178 0.158000
vt 0.662178 0.102000
vt 0.665000 0.102000
vt 0.665000 0.158000
vt 0.825000 0.102000
vt 0.825000 0.158000
vt 0.875000 0.102000
vt 0.875000 0.158000
vt 0.625000 0.592000
vt 0.625000 0.648000
vt 0.375000 0.648000
vt 0.375000 0.592000
vt 0.125000 0.102000
vt 0.175000 0.102000
vt 0.175000 0.158000
vt 0.125000 0.158000
vt 0.175000 0.158000
vt 0.175000 0.102000
vt 0.335000 0.102000
vt 0.335000 0.158000
vt 0.335000 0.158000
vt 0.335000 0.102000
vt 0.337822 0.102000
vt 0.337822 0.158000
vt 0.375000 0.004365
vt 0.625000 0.004365
vt 0.625000 0.060000
vt 0.375000 0.060000
vt 0.662178 0.060000
vt 0.662178 0.004365
vt 0.665000 0.004365
vt 0.665000 0.060000
vt 0.825000 0.060000
vt 0.825000 0.004365
vt 0.875000 0.060000
vt 0.875000 0.004365
vt 0.375000 0.690000
vt 0.625000 0.690000
vt 0.625000 0.745635
vt 0.375000 0.745635
vt 0.125000 0.004365
vt 0.175000 0.004365
vt 0.175000 0.060000
vt 0.125000 0.060000
vt 0.335000 0.060000
vt 0.335000 0.004365
vt 0.335000 0.004365
vt 0.337822 0.004365
vt 0.337822 0.060000
vt 0.335000 0.060000
vt 0.335000 0.200000
vt 0.175000 0.200000
vt 0.175000 0.200000
vt 0.335000 0.200000
vt 0.175000 0.158000
vt 0.175000 0.102000
vt 0.175000 0.060000
vt 0.335000 0.060000
vt 0.335000 0.060000
vt 0.175000 0.060000
vt 0.335000 0.102000
vt 0.335000 0.158000
vt 0.175000 0.102000
vt 0.175000 0.158000
vt 0.335000 0.060000
vt 0.175000 0.060000
vt 0.335000 0.158000
vt 0.335000 0.102000
vt 0.335000 0.102000
vt 0.335000 0.158000
vt 0.175000 0.200000
vt 0.335000 0.200000
vt 0.175000 0.200000
vt 0.175000 0.158000
vt 0.175000 0.102000
vt 0.175000 0.060000
vt 0.335000 0.060000
vt 0.335000 0.102000
vt 0.335000 0.102000
vt 0.335000 0.102000
vt 0.335000 0.158000
vt 0.335000 0.158000
vt 0.335000 0.158000
vt 0.335000 0.200000
vt 0.625000 0.250000
vt 0.375000 0.250000
vt 0.625000 1.000000
vt 0.375000 1.000000
vt 0.337822 0.060000
vt 0.337822 0.004365
vt 0.337822 0.102000
vt 0.337822 0.158000
vt 0.337822 0.200000
vt 0.337822 0.246186
vt 0.825000 0.250000
vt 0.875000 0.250000
vt 0.665000 0.250000
vt 0.662178 0.250000
vt 0.337822 0.250000
vt 0.335000 0.250000
vt 0.175000 0.250000
vt 0.125000 0.250000
vt 0.375000 0.000000
vt 0.625000 0.000000
vt 0.662178 0.000000
vt 0.665000 0.000000
vt 0.825000 0.000000
vt 0.875000 0.000000
vt 0.125000 0.000000
vt 0.175000 0.000000
vt 0.335000 0.000000
vt 0.337822 0.000000
vn 0.062305 0.000000 0.998057
vn 0.062305 0.000000 0.998057
vn 0.062303 0.000000 0.998057
vn 0.062303 0.000000 0.998057
vn 0.000000 1.000000 -0.000000
vn 0.000000 1.000000 0.000000
vn 0.000000 1.000000 0.000000
vn 0.000000 1.000000 -0.000000
vn -0.062391 0.000000 -0.998052
vn -0.062391 0.000000 -0.998052
vn -0.062391 0.000000 -0.998052
vn -0.062391 0.000000 -0.998052
vn 0.000000 -1.000000 -0.000002
vn 0.000000 -1.000000 -0.000000
vn 0.000000 -1.000000 -0.000000
vn 0.000000 -1.000000 -0.000002
vn 0.998048 0.000000 -0.062458
vn 0.998056 0.000011 -0.062318
vn 0.998056 0.000006 -0.062319
vn 0.998048 0.000000 -0.062458
vn -0.998057 0.000000 0.062304
vn -0.997596 0.000000 0.069295
vn -0.998058 0.000000 0.062299
vn -0.998057 0.000000 0.062304
vn 0.000000 1.000000 -0.000000
vn 0.000000 1.000000 -0.000000
vn 0.998063 0.000015 -0.062204
vn 0.998064 0.000008 -0.062204
vn 0.000000 -1.000000 0.000000
vn 0.000000 -1.000000 0.000000
vn -0.998058 0.000000 0.062298
vn -0.998058 0.000000 0.062298
vn 0.000000 1.000000 0.000000
vn 0.000000 1.000000 0.000000
vn 0.998071 0.000001 -0.062077
vn 0.998072 0.000001 -0.062071
vn 0.000000 -1.000000 0.000002
vn 0.000000 -1.000000 0.000002
vn -0.998223 0.000000 0.059583
vn -0.998223 0.000000 0.059583
vn -0.998223 0.000000 0.059580
vn -0.998223 0.000000 0.059580
vn 0.062302 0.000000 0.998057
vn 0.062304 0.000000 0.998057
vn 0.062304 0.000000 0.998057
vn 0.062302 0.000000 0.998057
vn 0.998072 0.000000 -0.062066
vn 0.998072 0.000000 -0.062065
vn 0.998063 0.000000 -0.062204
vn 0.998063 0.000000 -0.062204
vn 0.998056 0.000000 -0.062320
vn 0.998056 0.000000 -0.062320
vn 0.998048 0.000000 -0.062458
vn 0.998048 0.000000 -0.062458
vn -0.062392 0.000000 -0.998052
vn -0.062392 0.000000 -0.998052
vn -0.062392 0.000000 -0.998052
vn -0.062392 0.000000 -0.998052
vn -0.998057 0.000000 0.062304
vn -0.993779 0.000000 0.111367
vn -0.993733 0.000000 0.111778
vn -0.998057 0.000000 0.062304
vn -0.997329 0.000000 0.073037
vn -0.997322 0.000000 0.073129
vn -0.998057 0.000000 0.062310
vn -0.998057 0.000000 0.062311
vn -0.998223 0.000000 0.059586
vn -0.998223 0.000000 0.059594
vn -0.998223 0.000000 0.059594
vn -0.998223 0.000000 0.059586
vn 0.062303 0.000000 0.998057
vn 0.062303 0.000000 0.998057
vn 0.062302 0.000000 0.998057
vn 0.062302 0.000000 0.998057
vn 0.998072 -0.000001 -0.062071
vn 0.998071 -0.000001 -0.062077
vn 0.998063 -0.000012 -0.062204
vn 0.998063 -0.000007 -0.062204
vn 0.998056 -0.000006 -0.062319
vn 0.998056 -0.000009 -0.062318
vn 0.998048 0.000000 -0.062458
vn 0.998048 0.000000 -0.062457
vn -0.062393 0.000000 -0.998052
vn -0.062393 0.000000 -0.998052
vn -0.062393 0.000000 -0.998052
vn -0.062393 0.000000 -0.998052
vn -0.998057 0.000000 0.062303
vn -0.998057 0.000000 0.062299
vn -0.997670 0.010811 0.067364
vn -0.998057 0.000000 0.062304
vn -0.998004 0.012348 0.061930
vn -0.998058 0.000000 0.062298
vn -0.998223 0.000000 0.059583
vn -0.998223 0.000000 0.059583
vn -0.998223 0.000000 0.059589
vn -0.998223 0.000000 0.059589
vn -0.673093 -0.738747 0.034620
vn -0.672771 -0.739029 0.034864
vn -0.667114 -0.743928 0.039110
vn -0.667114 -0.743928 0.039110
vn -0.888021 0.000000 0.459802
vn -0.887998 0.000000 0.459848
vn -0.740157 0.671335 0.038439
vn -0.740500 0.670974 0.038125
vn -0.990140 0.125958 0.061295
vn -0.990801 0.113509 0.073677
vn -0.962002 0.000000 -0.273041
vn -0.962000 0.000000 -0.273048
vn -0.962084 0.000000 -0.272754
vn -0.962106 -0.000026 -0.272675
vn -0.886019 0.000000 0.463649
vn -0.886015 0.000000 0.463656
vn -0.938782 0.341016 0.048953
vn -0.932263 0.358539 0.048322
vn -0.997388 -0.000001 -0.072230
vn -0.997466 0.000011 -0.071150
vn -0.998012 0.000000 0.063018
vn -0.998012 0.000000 0.063017
vn -0.926313 -0.373593 0.048714
vn -0.926313 -0.373593 0.048714
vn -0.907536 -0.417324 0.047106
vn -0.915339 -0.399841 0.047766
vn -0.998013 0.000000 0.063014
vn -0.999076 -0.000022 -0.042968
vn -0.962185 -0.000046 -0.272396
vn -0.962000 0.000000 -0.273050
vn -0.998057 0.000000 0.062311
vn -0.997119 0.000000 0.075858
vn -0.887612 0.000000 0.460591
vn -0.886093 0.000000 0.463508
vn -0.886107 0.000000 0.463480
vn -0.887518 0.000000 0.460774
vn -0.962153 0.000000 -0.272510
vn -0.961995 0.000000 -0.273067
vn -0.998013 0.000000 0.063015
vn -0.999292 0.000000 -0.037627
vn -0.886018 0.000000 0.463652
vn -0.886210 0.000000 0.463283
vn -0.886199 0.000000 0.463305
vn -0.885977 0.000000 0.463730
vn -0.740973 0.670668 0.034101
vn -0.740960 0.670708 0.033616
vn -0.962012 0.000000 -0.273006
vn -0.961942 0.000020 -0.273254
vn -0.962284 0.000000 -0.272048
vn -0.962284 0.000000 -0.272048
vn -0.962284 0.000000 -0.272048
vn -0.962284 0.000000 -0.272048
vn -0.961941 -0.000025 -0.273257
vn -0.962009 -0.000070 -0.273019
vn -0.673535 -0.738526 0.030507
vn -0.673550 -0.738496 0.030901
vn -0.190010 0.978673 0.078072
vn -0.190010 0.978673 0.078072
vn -0.190010 0.978673 0.078072
vn -0.190010 0.978673 0.078072
vn 0.925709 -0.000048 -0.378236
vn 0.925709 -0.000048 -0.378236
vn 0.925709 -0.000048 -0.378236
vn 0.925709 -0.000048 -0.378236
vn -0.924243 0.000000 0.381804
vn -0.924243 0.000000 0.381804
vn -0.924243 0.000000 0.381804
vn -0.924243 0.000000 0.381804
vn -0.118326 -0.991785 0.048601
vn -0.118326 -0.991785 0.048601
vn -0.118326 -0.991785 0.048601
vn -0.118326 -0.991785 0.048601
vn 0.000000 1.000000 0.000000
vn 0.000000 1.000000 0.000000
vn 0.998053 0.000000 -0.062371
vn 0.998053 0.000000 -0.062371
vn 0.998053 0.000000 -0.062371
vn 0.998053 0.000000 -0.062371
vn 0.998053 0.000000 -0.062372
vn 0.998053 0.000000 -0.062372
vn 0.000000 -1.000000 0.000000
vn 0.000000 -1.000000 0.000000
vn -0.998072 0.000000 0.062073
vn -0.998072 0.000000 0.062073
vn -0.998071 0.000000 0.062077
vn -0.998072 0.000000 0.062074
vn -0.998072 0.000000 0.062072
vn -0.998072 0.000000 0.062072
vn -0.998072 0.000000 0.062071
vn -0.998072 0.000000 0.062071
vn -0.998072 0.000000 0.062072
vn -0.998072 0.000000 0.062072
vn -0.998072 0.000000 0.062074
vn -0.998071 0.000000 0.062077
vn -0.062395 0.000000 -0.998052
vn -0.062395 0.000000 -0.998052
vn 0.998056 0.000000 -0.062317
vn 0.998048 0.000000 -0.062457
vn 0.998063 0.000000 -0.062205
vn 0.998071 0.000000 -0.062088
vn 0.998053 0.000000 -0.062371
vn 0.062303 0.000000 0.998057
vn 0.062303 0.000000 0.998057
vn -0.998069 0.000000 0.062113
vn -0.998071 0.000000 0.062076
vn -0.998057 0.000000 0.062303
vn -0.998057 0.000000 0.062299
vn -0.998057 0.000000 0.062303
vn 0.062305 0.000000 0.998057
vn 0.062305 0.000000 0.998057
vn 0.998053 0.000000 -0.062373
vn 0.998071 0.000000 -0.062088
vn 0.998064 0.000000 -0.062203
vn 0.998056 0.000000 -0.062316
vn 0.998048 0.000000 -0.062457
vn -0.062391 0.000000 -0.998052
vn -0.062391 0.000000 -0.998052
vn -0.998057 0.000000 0.062304
vn -0.998058 0.000000 0.062299
vn -0.998057 0.000000 0.062303
vn -0.998069 0.000000 0.062113
vn -0.998071 0.000000 0.062075
vn 0.000000 -1.000000 0.000000
vn 0.000000 -1.000000 0.000000
vn 0.000000 -1.000000 0.000000
vn 0.000000 -1.000000 0.000000
vn 0.065381 0.000000 0.997860
vn 0.065386 0.000000 0.997860
vn 0.065386 0.000000 0.997860
vn 0.065381 0.000000 0.997860
vn -0.064163 -0.000000 -0.997939
vn -0.064177 -0.000000 -0.997939
vn -0.064177 -0.000000 -0.997939
vn -0.064163 -0.000000 -0.997939
vn 0.065362 0.000000 0.997862
vn 0.065344 0.000000 0.997863
vn 0.065344 0.000000 0.997863
vn 0.065362 0.000000 0.997862
vn -0.064177 0.000000 -0.997939
vn -0.064159 0.000000 -0.997940
vn -0.064159 0.000000 -0.997940
vn -0.064177 0.000000 -0.997939
vn -0.000002 1.000000 0.000000
vn -0.000002 1.000000 0.000000
vn -0.000002 1.000000 0.000000
vn -0.000002 1.000000 0.000000
vn -0.064168 0.000000 -0.997939
vn -0.064177 0.000000 -0.997939
vn -0.064177 0.000000 -0.997939
vn -0.064169 0.000000 -0.997939
vn 0.065342 0.000000 0.997863
vn 0.065336 0.000000 0.997863
vn 0.065336 0.000000 0.997863
vn 0.065342 0.000000 0.997863
s 1
g polySurface124 pCube53
usemtl initialShadingGroup
f 17/1/1 18/2/2 102/3/3 103/4/4
s 2
f 10/5/5 6/6/6 5/7/7 9/8/8
s 3
f 97/9/9 98/10/10 21/11/11 22/12/12
s 4
f 8/13/13 11/14/14 12/15/15 7/16/16
s 5
f 98/17/17 99/18/18 20/19/19 21/20/20
s 6
f 22/21/21 23/22/22 106/23/23 97/24/24
s 2
f 14/25/25 10/5/5 9/8/8 13/26/26
s 5
f 99/18/18 100/27/27 19/28/28 20/19/19
s 4
f 11/14/14 15/29/29 16/30/30 12/15/15
s 6
f 105/31/31 106/23/23 23/22/22 24/32/32
s 2
f 86/33/33 14/25/25 13/26/26 85/34/34
s 5
f 100/27/27 101/35/35 87/36/36 19/28/28
s 4
f 15/29/29 91/37/37 92/38/38 16/30/30
s 7
f 117/39/39 118/40/40 119/41/41 120/42/42
s 1
f 54/43/43 42/44/44 43/45/45 53/46/46
s 5
f 88/47/47 89/48/48 55/49/49 41/50/50
f 55/49/49 56/51/51 52/52/52 41/50/50
f 56/51/51 57/53/53 51/54/54 52/52/52
s 3
f 51/55/55 57/56/56 58/57/57 50/58/58
s 6
f 58/59/59 59/60/60 49/61/61 50/62/62
f 47/63/63 61/64/64 62/65/65 46/66/66
s 7
f 122/67/67 121/68/68 123/69/69 124/70/70
s 1
f 107/71/71 108/72/72 26/73/73 25/74/74
s 5
f 90/75/75 109/76/76 110/77/77 27/78/78
f 28/79/79 27/78/78 110/77/77 111/80/80
f 29/81/81 28/79/79 111/80/80 112/82/82
s 3
f 30/83/83 29/84/84 112/85/85 113/86/86
s 6
f 113/87/87 114/88/88 31/89/89 30/90/90
f 32/91/91 31/89/89 114/88/88 115/92/92
s 7
f 125/93/93 126/94/94 127/95/95 128/96/96
s 16
f 72/97/97 65/98/98 33/99/99 34/100/100
s 6
f 66/101/101 67/102/102 61/64/64 47/63/63
f 68/103/103 69/104/104 36/105/105 35/106/106
s 18
f 46/66/107 62/65/108 70/107/109 71/108/110
s 6
f 49/61/61 59/60/60 60/109/111 48/110/112
f 31/89/89 32/91/91 39/111/113 38/112/114
s 18
f 45/113/115 63/114/116 64/115/117 44/116/118
s 16
f 24/32/119 23/22/120 37/117/121 40/118/122
s 5
f 87/36/36 88/47/47 41/50/50 19/28/28
s 1
f 42/44/44 18/2/2 17/1/1 43/45/45
s 7
f 124/70/70 120/42/42 119/41/41 122/67/67
s 18
f 45/113/115 44/116/118 24/32/123 40/118/124
f 46/66/107 71/108/110 72/97/125 34/100/126
s 6
f 34/100/127 33/99/128 47/63/63 46/66/66
f 65/98/129 66/101/101 47/63/63 33/99/128
f 23/22/22 49/61/61 48/110/112 37/117/130
f 50/62/62 49/61/61 23/22/22 22/21/21
s 3
f 21/11/11 51/55/55 50/58/58 22/12/12
s 5
f 21/20/20 20/19/19 52/52/52 51/54/54
f 20/19/19 19/28/28 41/50/50 52/52/52
s 1
f 26/73/73 54/43/43 53/46/46 25/74/74
s 5
f 89/48/48 90/75/75 27/78/78 55/49/49
f 56/51/51 55/49/49 27/78/78 28/79/79
f 57/53/53 56/51/51 28/79/79 29/81/81
s 3
f 57/56/56 29/84/84 30/83/83 58/57/57
s 6
f 30/90/90 31/89/89 59/60/60 58/59/59
f 60/109/111 59/60/60 31/89/89 38/112/131
f 61/64/64 67/102/102 68/103/132 35/106/106
f 62/65/65 61/64/64 35/106/106 36/105/105
s 18
f 69/104/133 70/107/109 62/65/108 36/105/134
f 32/91/135 64/115/117 63/114/116 39/111/136
s 7
f 127/95/95 123/69/69 121/68/68 128/96/96
s 6
f 73/119/137 74/120/138 66/101/101 65/98/129
f 74/120/138 75/121/139 67/102/102 66/101/101
f 68/103/132 67/102/102 75/121/139 76/122/140
f 76/122/141 77/123/142 69/104/104 68/103/103
s 18
f 77/123/143 78/124/144 70/107/109 69/104/133
s off
f 81/125/145 82/126/146 84/127/147 83/128/148
s 18
f 72/97/125 71/108/110 79/129/149 80/130/150
s 16
f 80/130/151 73/119/152 65/98/98 72/97/97
s 6
f 37/117/130 48/110/112 74/120/138 73/119/137
f 48/110/112 60/109/111 75/121/139 74/120/138
f 76/122/140 75/121/139 60/109/111 38/112/131
f 38/112/114 39/111/113 77/123/142 76/122/141
s 18
f 39/111/136 63/114/116 78/124/144 77/123/143
f 78/124/144 63/114/116 45/113/115 79/129/149
f 80/130/150 79/129/149 45/113/115 40/118/124
s 16
f 40/118/122 37/117/121 73/119/152 80/130/151
s off
f 70/107/153 78/124/154 82/126/155 81/125/156
f 82/126/157 78/124/158 79/129/159 84/127/160
f 81/125/161 83/128/162 71/108/163 70/107/164
f 79/129/165 71/108/166 83/128/167 84/127/168
s 2
f 4/131/169 86/33/33 85/34/34 3/132/170
s 5
f 18/2/171 87/36/36 101/35/35 102/3/172
f 42/44/173 88/47/47 87/36/36 18/2/171
f 42/44/173 54/43/174 89/48/48 88/47/47
f 26/73/175 90/75/75 89/48/48 54/43/174
f 108/72/176 109/76/76 90/75/75 26/73/175
s 4
f 91/37/37 2/133/177 1/134/178 92/38/38
s 6
f 25/74/179 93/135/180 116/136/181 107/71/182
f 53/46/183 94/137/184 93/135/180 25/74/179
f 95/138/185 94/137/184 53/46/183 43/45/186
f 17/1/187 96/139/188 95/138/185 43/45/186
f 103/4/189 104/140/190 96/139/188 17/1/187
s 3
f 5/7/191 6/6/192 98/10/10 97/9/9
s 5
f 10/141/193 99/18/18 98/17/17 6/142/194
f 14/143/195 100/27/27 99/18/18 10/141/193
f 86/144/196 101/35/35 100/27/27 14/143/195
f 102/3/172 101/35/35 86/144/196 4/131/197
s 1
f 102/3/3 4/131/198 3/132/199 103/4/4
s 6
f 85/145/200 104/140/190 103/4/189 3/132/201
f 13/146/202 105/31/31 104/140/190 85/145/200
f 9/147/203 106/23/23 105/31/31 13/146/202
f 97/24/24 106/23/23 9/147/203 5/148/204
s 1
f 1/149/205 2/150/206 108/72/72 107/71/71
s 5
f 2/150/207 91/151/208 109/76/76 108/72/176
f 110/77/77 109/76/76 91/151/208 15/152/209
f 111/80/80 110/77/77 15/152/209 11/153/210
f 112/82/82 111/80/80 11/153/210 8/154/211
s 3
f 112/85/85 8/13/212 7/16/213 113/86/86
s 6
f 7/155/214 12/156/215 114/88/88 113/87/87
f 115/92/92 114/88/88 12/156/215 16/157/216
f 92/158/217 116/136/181 115/92/92 16/157/216
f 107/71/182 116/136/181 92/158/217 1/149/218
s off
f 104/140/219 105/31/220 118/40/221 117/39/222
s 22
f 105/31/223 24/32/224 119/41/225 118/40/226
s 23
f 96/139/227 104/140/228 117/39/229 120/42/230
s 22
f 44/116/231 64/115/232 121/68/233 122/67/234
s 23
f 94/137/235 95/138/236 124/70/237 123/69/238
s off
f 115/92/239 116/136/240 126/94/241 125/93/242
s 23
f 116/136/243 93/135/244 127/95/245 126/94/246
s 22
f 32/91/247 115/92/248 125/93/249 128/96/250
s 23
f 95/138/236 96/139/227 120/42/230 124/70/237
s 22
f 24/32/224 44/116/231 122/67/234 119/41/225
s 23
f 93/135/244 94/137/235 123/69/238 127/95/245
s 22
f 64/115/232 32/91/247 128/96/250 121/68/233
