# This file uses centimeters as units for non-parametric coordinates.

mtllib paper01.mtl
g default
v 428.568370 118.686576 -1575.406729
v 445.731646 118.686565 -1581.196723
v 436.288574 132.027865 -1577.974754
v 438.035227 132.027865 -1578.577848
v 429.691357 132.010322 -1597.524729
v 431.434707 132.010322 -1598.106135
v 421.667829 118.704107 -1595.847403
v 438.826480 118.704107 -1601.615343
v 437.154234 121.237685 -1578.301544
v 430.308485 121.248518 -1598.573628
v 436.669631 131.686244 -1578.118921
v 437.652552 131.686244 -1578.448626
v 431.041073 131.669635 -1598.021202
v 430.065876 131.669635 -1597.678373
v 437.154621 121.650387 -1578.305007
v 430.316960 121.660104 -1598.549752
v 438.573596 118.914297 -1601.538247
v 445.466277 118.897302 -1581.090466
v 421.939190 118.914297 -1595.904450
v 428.833944 118.897336 -1575.499499
vt 0.375000 0.250000
vt 0.375000 0.500000
vt 0.625000 0.500000
vt 0.625000 0.250000
vt 0.500000 1.000000
vt 0.625000 1.000000
vt 0.625000 0.750000
vt 0.500000 0.750000
vt 0.625000 0.000000
vt 0.875000 0.250000
vt 0.875000 0.000000
vt 0.125000 0.000000
vt 0.125000 0.250000
vt 0.375000 0.000000
vt 0.375000 0.750000
vt 0.375000 1.000000
vt 0.375000 0.250000
vt 0.625000 0.250000
vt 0.625000 0.500000
vt 0.375000 0.500000
vt 0.500000 1.000000
vt 0.500000 0.750000
vt 0.625000 0.750000
vt 0.625000 1.000000
vt 0.625000 0.000000
vt 0.875000 0.000000
vt 0.875000 0.250000
vt 0.125000 0.000000
vt 0.375000 0.000000
vt 0.125000 0.250000
vt 0.375000 0.750000
vt 0.375000 1.000000
vt 0.375000 0.250000
vt 0.625000 0.250000
vt 0.625000 0.500000
vt 0.375000 0.500000
vt 0.500000 0.750000
vt 0.625000 0.750000
vt 0.625000 1.000000
vt 0.500000 1.000000
vt 0.875000 0.000000
vt 0.875000 0.250000
vt 0.625000 0.000000
vt 0.375000 0.000000
vt 0.125000 0.250000
vt 0.125000 0.000000
vt 0.375000 0.750000
vt 0.375000 1.000000
vn 0.000261 -1.000000 0.000760
vn 0.000261 -1.000000 0.000760
vn 0.000261 -1.000000 0.000760
vn 0.000261 -1.000000 0.000760
vn 0.000614 1.000000 0.000510
vn 0.283573 0.954228 -0.095056
vn 0.283573 0.954228 -0.095056
vn 0.000506 1.000000 0.000546
vn -0.795773 -0.542813 0.268512
vn -0.795773 -0.542813 0.268512
vn -0.795773 -0.542813 0.268512
vn -0.795773 -0.542813 0.268512
vn 0.795417 -0.543258 -0.268668
vn 0.795417 -0.543258 -0.268669
vn 0.795417 -0.543258 -0.268668
vn 0.795417 -0.543258 -0.268668
vn -0.282866 0.954324 0.096186
vn -0.282866 0.954324 0.096186
vn -0.000273 1.000000 -0.000806
vn -0.000273 1.000000 -0.000806
vn -0.000273 1.000000 -0.000806
vn -0.000273 1.000000 -0.000806
vn -0.000189 -1.000000 -0.000594
vn 0.000082 -1.000000 -0.000686
vn -0.256983 -0.962566 0.086172
vn -0.256983 -0.962567 0.086172
vn 0.808720 0.520783 -0.273418
vn 0.808720 0.520783 -0.273418
vn 0.808720 0.520783 -0.273418
vn 0.808720 0.520783 -0.273418
vn -0.808606 0.521218 0.272925
vn -0.808606 0.521218 0.272925
vn -0.808606 0.521218 0.272925
vn -0.808606 0.521218 0.272925
vn 0.256296 -0.962656 -0.087207
vn 0.256296 -0.962656 -0.087207
vn 0.340281 -0.016696 0.940176
vn 0.338913 -0.017082 0.940663
vn 0.337519 0.007945 0.941285
vn 0.338736 0.010518 0.940823
vn -0.265307 0.108151 -0.958079
vn -0.269773 0.107822 -0.956868
vn -0.301733 0.064602 -0.951201
vn -0.300073 0.061108 -0.951957
vn -0.329485 0.059880 -0.942260
vn -0.329488 0.059839 -0.942262
vn -0.285612 0.080382 -0.954968
vn -0.287435 0.078150 -0.954607
vn 0.331074 0.000946 0.943604
vn 0.330605 0.000327 0.943769
vn 0.314084 -0.006274 0.949374
vn 0.314093 -0.006194 0.949372
vn 0.333237 -0.007596 0.942813
vn 0.333039 -0.007373 0.942884
vn -0.308184 0.071419 -0.948642
vn -0.308452 0.071786 -0.948527
s off
g polySurface123 pCube53
usemtl initialShadingGroup
f 11/1/1 14/2/2 13/3/3 12/4/4
s 1
f 15/5/5 18/6/6 17/7/7 16/8/8
s off
f 18/9/9 12/4/10 13/10/11 17/11/12
f 19/12/13 14/13/14 11/1/15 20/14/16
s 1
f 19/15/17 20/16/18 15/5/5 16/8/8
s off
f 3/17/19 4/18/20 6/19/21 5/20/22
s 2
f 9/21/23 10/22/24 8/23/25 2/24/26
s off
f 2/25/27 8/26/28 6/27/29 4/18/30
f 7/28/31 1/29/32 3/17/33 5/30/34
s 2
f 7/31/35 10/22/24 9/21/23 1/32/36
s 3
f 3/33/37 11/1/38 12/4/39 4/34/40
s 4
f 6/35/41 13/3/42 14/2/43 5/36/44
f 10/37/45 16/8/46 17/7/47 8/38/48
s 3
f 2/39/49 18/6/50 15/5/51 9/40/52
s 4
f 8/41/48 17/11/47 13/10/42 6/42/41
s 3
f 4/34/40 12/4/39 18/9/50 2/43/49
f 1/44/53 20/14/54 11/1/38 3/33/37
s 4
f 5/45/44 14/13/43 19/12/55 7/46/56
f 7/47/56 19/15/55 16/8/46 10/37/45
s 3
f 9/40/52 15/5/51 20/16/54 1/48/53
