# This file uses centimeters as units for non-parametric coordinates.

mtllib sofa03.mtl
g default
v -1470.155640 1.720779 -2385.544434
v -1469.006348 1.720745 -2384.320801
v -1529.053955 1.720779 -2385.544434
v -1572.072876 49.618999 -2384.320801
v -1570.923218 49.637207 -2385.544434
v -1573.486084 104.757378 -2384.320801
v -1572.299683 103.607895 -2385.544434
v -1572.072876 1.720745 -2384.320801
v -1570.923218 1.720779 -2385.544434
v -1530.416016 50.395012 -2269.885498
v -1529.915039 48.758095 -2269.885498
v -1528.245850 48.475937 -2269.885498
v -1470.138916 1.720779 -2269.885498
v -1469.006348 1.720745 -2271.091797
v -1528.239258 1.720779 -2269.885498
v -1529.882446 1.720779 -2269.885498
v -1529.053955 1.720745 -2271.024414
v -1570.920410 48.804146 -2269.885498
v -1570.927124 50.447323 -2269.885498
v -1572.072876 49.618999 -2271.024658
v -1570.940308 1.720779 -2269.885498
v -1572.072876 1.720745 -2271.091797
v -1542.625610 103.599388 -2269.885498
v -1542.166992 101.955940 -2269.885498
v -1541.188843 102.780777 -2271.026855
v -1572.244507 101.965660 -2269.885498
v -1572.277710 103.609100 -2269.885498
v -1573.423706 102.780777 -2271.024658
v -1572.317139 103.624809 -2269.885498
v -1573.486084 104.757378 -2271.091797
v -1471.545532 48.469639 -2385.544434
v -1470.155640 47.080116 -2385.544434
v -1469.006348 48.229481 -2384.320801
v -1470.395874 49.618999 -2384.320801
v -1470.138916 47.096844 -2269.885498
v -1471.528687 48.486137 -2269.885498
v -1470.395874 49.618999 -2271.090088
v -1469.006348 48.229481 -2271.091797
v -1527.972534 48.469639 -2385.544434
v -1529.886963 46.614323 -2385.544434
v -1531.776245 48.538326 -2385.544434
v -1530.455444 50.344490 -2385.544434
v -1529.528198 48.990990 -2385.544434
v -1529.587769 51.493866 -2384.320801
v -1528.660400 50.140358 -2384.320801
v -1527.104614 49.618999 -2384.320801
v -1527.104614 49.618999 -2271.026123
v -1528.660400 50.140366 -2271.024414
v -1529.587646 51.493874 -2271.023682
v -1530.318237 50.339279 -2269.967285
v -1528.245850 48.476048 -2269.885742
v -1529.921875 48.469639 -2385.544434
v -1529.053955 49.618999 -2271.023438
v -1542.626587 103.607895 -2385.544434
v -1541.758667 104.757378 -2384.320801
v -1542.618042 103.624809 -2269.885498
v -1541.758667 104.757378 -2271.091797
v -1542.617920 103.601166 -2385.544434
v -1541.750122 104.750679 -2384.320801
v -1541.750122 104.750679 -2271.091797
v -1542.616577 103.611725 -2269.885498
v -1542.618164 103.601608 -2385.544434
v -1541.750366 104.751076 -2384.320801
v -1541.750366 104.751076 -2271.091797
v -1542.616333 103.612427 -2269.885498
v -1470.155640 1.720779 -2268.812988
v -1469.006348 1.720745 -2267.589355
v -1529.053955 1.720779 -2268.812988
v -1572.072876 49.618999 -2267.589355
v -1570.923218 49.637207 -2268.812988
v -1573.486084 104.757378 -2267.589355
v -1572.299683 103.607895 -2268.812988
v -1572.072876 1.720745 -2267.589355
v -1570.923218 1.720779 -2268.812988
v -1530.416016 50.395012 -2153.154053
v -1529.915039 48.758095 -2153.154053
v -1528.245850 48.475937 -2153.154053
v -1470.138916 1.720779 -2153.154053
v -1469.006348 1.720745 -2154.360352
v -1528.239258 1.720779 -2153.154053
v -1529.882446 1.720779 -2153.154053
v -1529.053955 1.720745 -2154.292969
v -1570.920410 48.804146 -2153.154053
v -1570.927124 50.447323 -2153.154053
v -1572.072876 49.618999 -2154.293213
v -1570.940308 1.720779 -2153.154053
v -1572.072876 1.720745 -2154.360352
v -1542.625610 103.599388 -2153.154053
v -1542.166992 101.955940 -2153.154053
v -1541.188843 102.780777 -2154.295410
v -1572.244507 101.965660 -2153.154053
v -1572.277710 103.609100 -2153.154053
v -1573.423706 102.780777 -2154.293213
v -1572.317139 103.624809 -2153.154053
v -1573.486084 104.757378 -2154.360352
v -1471.545532 48.469639 -2268.812988
v -1470.155640 47.080116 -2268.812988
v -1469.006348 48.229481 -2267.589355
v -1470.395874 49.618999 -2267.589355
v -1470.138916 47.096844 -2153.154053
v -1471.528687 48.486137 -2153.154053
v -1470.395874 49.618999 -2154.358643
v -1469.006348 48.229481 -2154.360352
v -1527.972534 48.469639 -2268.812988
v -1529.886963 46.614323 -2268.812988
v -1531.776245 48.538326 -2268.812988
v -1530.455444 50.344490 -2268.812988
v -1529.528198 48.990990 -2268.812988
v -1529.587769 51.493866 -2267.589355
v -1528.660400 50.140358 -2267.589355
v -1527.104614 49.618999 -2267.589355
v -1527.104614 49.618999 -2154.294678
v -1528.660400 50.140366 -2154.292969
v -1529.587646 51.493874 -2154.292236
v -1530.318237 50.339279 -2153.235840
v -1528.245850 48.476048 -2153.154297
v -1529.921875 48.469639 -2268.812988
v -1529.053955 49.618999 -2154.291992
v -1542.626587 103.607895 -2268.812988
v -1541.758667 104.757378 -2267.589355
v -1542.618042 103.624809 -2153.154053
v -1541.758667 104.757378 -2154.360352
v -1542.617920 103.601166 -2268.812988
v -1541.750122 104.750679 -2267.589355
v -1541.750122 104.750679 -2154.360352
v -1542.616577 103.611725 -2153.154053
v -1542.618164 103.601608 -2268.812988
v -1541.750366 104.751076 -2267.589355
v -1541.750366 104.751076 -2154.360352
v -1542.616333 103.612427 -2153.154053
vt 0.626637 0.250000
vt 0.621573 0.006244
vt 0.528402 0.500000
vt 0.527567 0.504677
vt 0.527470 0.743635
vt 0.625000 0.498477
vt 0.621623 0.743847
vt 0.620880 0.500000
vt 0.619931 0.500000
vt 0.619734 0.500000
vt 0.621564 0.504427
vt 0.529413 0.500000
vt 0.625000 0.751613
vt 0.873477 0.250000
vt 0.626637 0.000000
vt 0.873387 0.000000
vt 0.525000 0.751523
vt 0.625000 0.498477
vt 0.625000 0.251637
vt 0.522570 0.743741
vt 0.382571 0.243756
vt 0.376381 0.246279
vt 0.373363 0.250000
vt 0.126613 0.250000
vt 0.378377 0.513284
vt 0.377046 0.503091
vt 0.373363 0.000000
vt 0.378427 0.236632
vt 0.373363 0.242682
vt 0.375000 0.505807
vt 0.378377 0.743847
vt 0.375000 0.751613
vt 0.126613 0.000000
vt 0.126613 0.242682
vt 0.378427 0.006244
vt 0.525000 0.006244
vt 0.621557 0.250000
vt 0.382521 0.506154
vt 0.379143 0.498389
vt 0.522590 0.506210
vt 0.519187 0.498475
vt 0.525000 0.498478
vt 0.521775 0.243756
vt 0.519187 0.251637
vt 0.379143 0.251637
vt 0.527699 0.244019
vt 0.533116 0.244124
vt 0.527484 0.234243
vt 0.522590 0.506209
vt 0.528158 0.499891
vt 0.527587 0.243756
vt 0.525000 0.251637
vt 0.525000 0.498478
vt 0.528285 0.242169
vt 0.525148 0.500254
vt 0.625000 0.251637
vt 0.619908 0.500000
vt 0.625000 0.498387
vt 0.525000 0.498474
vt 0.525000 0.251637
vt 0.525000 0.251637
vt 0.525000 0.498177
vt 0.619832 0.250000
vt 0.530290 0.500000
vt 0.530214 0.250012
vt 0.525001 0.253029
vt 0.530232 0.500000
vt 0.530252 0.250000
vt 0.525000 0.374199
vt 0.525001 0.498183
vt 0.527053 0.498895
vt 0.530234 0.500000
vt 0.530282 0.250000
vt 0.525030 0.251637
vt 0.525016 0.374943
vt 0.525030 0.251919
vt 0.525030 0.498386
vt 0.530226 0.500000
vt 0.626637 0.250000
vt 0.621557 0.250000
vt 0.621573 0.006244
vt 0.626637 0.000000
vt 0.625000 0.251637
vt 0.625000 0.251637
vt 0.619832 0.250000
vt 0.525000 0.006244
vt 0.533116 0.244124
vt 0.527484 0.234243
vt 0.530282 0.250000
vt 0.530214 0.250012
vt 0.530252 0.250000
vt 0.527699 0.244019
vt 0.528402 0.500000
vt 0.528158 0.499891
vt 0.525000 0.498478
vt 0.525000 0.498474
vt 0.529413 0.500000
vt 0.527567 0.504677
vt 0.620880 0.500000
vt 0.621564 0.504427
vt 0.522590 0.506210
vt 0.527470 0.743635
vt 0.522570 0.743741
vt 0.625000 0.498477
vt 0.625000 0.751613
vt 0.621623 0.743847
vt 0.619931 0.500000
vt 0.625000 0.498477
vt 0.530290 0.500000
vt 0.619734 0.500000
vt 0.619908 0.500000
vt 0.625000 0.498387
vt 0.530234 0.500000
vt 0.530232 0.500000
vt 0.530226 0.500000
vt 0.873477 0.250000
vt 0.873387 0.000000
vt 0.522590 0.506209
vt 0.525000 0.751523
vt 0.378377 0.513284
vt 0.382521 0.506154
vt 0.378377 0.743847
vt 0.378427 0.236632
vt 0.382571 0.243756
vt 0.376381 0.246279
vt 0.373363 0.242682
vt 0.373363 0.250000
vt 0.126613 0.250000
vt 0.126613 0.242682
vt 0.377046 0.503091
vt 0.379143 0.498389
vt 0.373363 0.000000
vt 0.378427 0.006244
vt 0.519187 0.498475
vt 0.375000 0.505807
vt 0.375000 0.751613
vt 0.126613 0.000000
vt 0.521775 0.243756
vt 0.519187 0.251637
vt 0.525000 0.251637
vt 0.525000 0.498478
vt 0.525000 0.251637
vt 0.379143 0.251637
vt 0.527587 0.243756
vt 0.528285 0.242169
vt 0.525148 0.500254
vt 0.525030 0.251637
vt 0.525030 0.498386
vt 0.525000 0.498177
vt 0.525000 0.251637
vt 0.525001 0.253029
vt 0.525000 0.374199
vt 0.525001 0.498183
vt 0.527053 0.498895
vt 0.525016 0.374943
vt 0.525030 0.251919
vn -0.728138 -0.009900 -0.685359
vn -0.728136 -0.009925 -0.685361
vn -0.728771 0.000000 -0.684758
vn -0.728771 0.000000 -0.684758
vn -0.727522 -0.018600 -0.685832
vn -0.727522 -0.018600 -0.685832
vn 0.000000 0.000000 -1.000000
vn 0.000000 0.000000 -1.000000
vn 0.000001 0.000000 -1.000000
vn 0.000001 0.000000 -1.000000
vn 0.000000 0.000000 -1.000000
vn 0.000001 0.000000 -1.000000
vn 0.000001 0.000000 -1.000000
vn 0.000001 0.000000 -1.000000
vn 0.000001 0.000000 -1.000000
vn 0.000001 0.000000 -1.000000
vn 0.700341 0.159461 0.695770
vn 0.692691 0.158782 0.703539
vn 0.701771 0.159806 0.694248
vn 0.702910 0.161017 0.692814
vn 0.703268 0.160132 0.692656
vn -0.000000 0.000000 1.000000
vn 0.000000 0.000000 1.000000
vn 0.000000 0.000000 1.000000
vn -0.000000 0.000000 1.000000
vn 0.000000 0.000000 1.000000
vn -0.000000 0.000000 1.000000
vn 0.000000 0.000000 1.000000
vn -0.716193 -0.000366 0.697902
vn -0.707666 -0.009481 0.706484
vn -0.716305 -0.000342 0.697787
vn -0.716305 -0.000342 0.697787
vn -0.699789 -0.017711 0.714130
vn -0.699753 -0.017805 0.714163
vn -0.700003 -0.017690 0.713921
vn 0.000000 0.000000 1.000000
vn 0.000001 0.000000 1.000000
vn 0.000001 0.000000 1.000000
vn 0.000000 0.000000 1.000000
vn -0.706874 -0.013382 0.707213
vn -0.712482 -0.012773 0.701574
vn -0.712482 -0.012773 0.701574
vn -0.000000 0.000000 1.000000
vn 0.000006 0.000000 1.000000
vn 0.000006 0.000000 1.000000
vn 0.000006 0.000000 1.000000
vn 0.000006 0.000000 1.000000
vn -0.999906 -0.013722 0.000028
vn -0.999906 -0.013716 0.000028
vn -1.000000 0.000000 0.000000
vn -1.000000 0.000000 0.000000
vn -0.999672 -0.025622 0.000052
vn -0.999672 -0.025622 0.000052
vn -0.999672 -0.025622 0.000052
vn 0.058846 0.066708 0.996036
vn 0.001126 0.711094 0.703096
vn 0.000974 0.711091 0.703099
vn 0.000000 -1.000000 0.000030
vn 0.000000 -1.000000 0.000030
vn 0.000000 -1.000000 0.000030
vn 0.679850 0.204548 0.704248
vn 0.000000 0.000000 1.000000
vn 0.000000 0.000000 1.000000
vn 0.000000 0.000000 1.000000
vn 0.721509 0.015456 -0.692232
vn 0.012621 0.722879 -0.690859
vn 0.027374 0.715649 -0.697924
vn 0.712693 0.033273 -0.700687
vn 0.707123 0.707091 0.000000
vn 0.707123 0.707091 0.000000
vn 0.707123 0.707091 0.000000
vn 0.707123 0.707091 0.000000
vn 0.013061 0.711596 0.702467
vn 0.721672 0.015436 0.692063
vn 0.712863 0.033216 0.700517
vn 0.027967 0.704512 0.709141
vn 0.728882 0.000000 -0.684639
vn 0.728882 0.000000 -0.684639
vn 0.000338 0.715877 0.698227
vn 0.729045 0.000000 0.684465
vn 0.729045 0.000000 0.684465
vn 1.000000 0.000000 0.000000
vn 1.000000 0.000000 0.000000
vn 1.000000 0.000000 0.000000
vn 1.000000 0.000000 0.000000
vn 0.000000 0.000000 -1.000000
vn 0.000000 0.000000 -1.000000
vn 0.000000 0.000000 -1.000000
vn 0.000000 0.000000 -1.000000
vn 0.008950 0.999960 -0.000000
vn 0.317742 0.948177 -0.000000
vn 0.317742 0.948177 -0.000000
vn 0.008962 0.999960 -0.000000
vn 0.824995 0.565140 -0.000000
vn 0.972455 0.233090 -0.000467
vn 0.972456 0.233088 -0.000467
vn 0.824995 0.565140 -0.000000
vn 0.010609 0.725074 -0.688590
vn 0.004265 0.727363 -0.686240
vn 0.000000 1.000000 0.000000
vn 0.000000 1.000000 0.000000
vn 0.390167 0.516741 -0.762068
vn 0.390173 0.516736 -0.762068
vn 0.716456 0.177323 -0.674720
vn 0.721377 0.170015 -0.671349
vn 0.000000 0.000000 -1.000000
vn 0.000000 0.000000 -1.000000
vn 0.001242 0.564797 0.825229
vn 0.001242 0.564797 0.825229
vn 0.637506 0.721025 0.271492
vn 0.637506 0.721025 0.271492
vn 0.637506 0.721025 0.271492
vn 0.544197 0.155025 0.824510
vn 0.544197 0.155025 0.824510
vn 0.000223 0.728769 -0.684760
vn 0.000119 0.728805 -0.684722
vn 0.000000 0.728846 -0.684678
vn 0.000000 0.728846 -0.684678
vn 0.000000 0.729038 0.684473
vn 0.000000 0.729038 0.684473
vn 0.000000 0.729038 0.684473
vn 0.000000 0.729038 0.684473
vn 0.000000 1.000000 0.000000
vn 0.000000 1.000000 0.000000
vn 0.000000 1.000000 0.000000
vn 0.000000 1.000000 0.000000
vn 0.682822 0.212909 0.698874
vn 0.682685 0.213060 0.698962
vn 0.724404 0.165463 -0.669224
vn 0.724401 0.165467 -0.669227
vn 0.974900 0.222645 -0.000480
vn 0.974900 0.222645 -0.000480
vn 0.974900 0.222642 -0.000480
vn 0.398523 0.508913 -0.763012
vn 0.399807 0.509494 -0.761951
vn 0.820901 0.571071 0.000000
vn 0.820901 0.571071 0.000000
vn 0.618383 0.305960 0.723872
vn 0.636272 0.287132 0.716039
vn 0.605651 0.795730 0.000000
vn 0.605651 0.795730 0.000000
vn 0.605651 0.795730 0.000000
vn 0.605651 0.795730 0.000000
vn 0.607764 0.316813 0.728185
vn 0.607764 0.316813 0.728185
vn -0.728138 -0.009900 -0.685359
vn -0.728136 -0.009925 -0.685361
vn -0.728816 0.000000 -0.684709
vn -0.728816 0.000000 -0.684709
vn -0.727482 -0.018602 -0.685875
vn -0.727482 -0.018602 -0.685875
vn 0.000000 0.000000 -1.000000
vn 0.000000 0.000000 -1.000000
vn -0.000001 0.000000 -1.000000
vn -0.000001 0.000000 -1.000000
vn 0.000000 0.000000 -1.000000
vn -0.000003 0.000000 -1.000000
vn -0.000003 0.000000 -1.000000
vn -0.000003 0.000000 -1.000000
vn -0.000003 0.000000 -1.000000
vn -0.000003 0.000000 -1.000000
vn 0.700342 0.159461 0.695769
vn 0.692694 0.158781 0.703537
vn 0.701771 0.159806 0.694247
vn 0.702912 0.161016 0.692812
vn 0.703268 0.160132 0.692656
vn -0.000001 0.000000 1.000000
vn 0.000003 0.000000 1.000000
vn 0.000003 0.000000 1.000000
vn -0.000001 0.000000 1.000000
vn 0.000000 0.000000 1.000000
vn -0.000001 0.000000 1.000000
vn 0.000000 0.000000 1.000000
vn -0.716194 -0.000366 0.697902
vn -0.707666 -0.009481 0.706483
vn -0.716305 -0.000342 0.697787
vn -0.716305 -0.000342 0.697787
vn -0.699790 -0.017711 0.714130
vn -0.699753 -0.017805 0.714163
vn -0.700002 -0.017690 0.713922
vn 0.000003 0.000000 1.000000
vn -0.000002 0.000000 1.000000
vn -0.000002 0.000000 1.000000
vn 0.000003 0.000000 1.000000
vn -0.706854 -0.013383 0.707233
vn -0.712482 -0.012773 0.701574
vn -0.712482 -0.012773 0.701574
vn -0.000001 0.000000 1.000000
vn 0.000003 0.000000 1.000000
vn 0.000003 0.000000 1.000000
vn 0.000003 0.000000 1.000000
vn 0.000003 0.000000 1.000000
vn -0.999906 -0.013722 0.000028
vn -0.999906 -0.013716 0.000028
vn -1.000000 0.000000 0.000000
vn -1.000000 0.000000 0.000000
vn -0.999672 -0.025622 0.000052
vn -0.999672 -0.025622 0.000052
vn -0.999672 -0.025622 0.000052
vn 0.059102 0.066707 0.996021
vn 0.001129 0.711094 0.703096
vn 0.000976 0.711091 0.703099
vn 0.000000 -1.000000 0.000030
vn 0.000000 -1.000000 0.000030
vn 0.000000 -1.000000 0.000030
vn 0.679946 0.204523 0.704162
vn 0.000000 0.000000 1.000000
vn 0.000000 0.000000 1.000000
vn 0.000000 0.000000 1.000000
vn 0.721555 0.015455 -0.692185
vn 0.012620 0.722879 -0.690859
vn 0.027370 0.715648 -0.697924
vn 0.712736 0.033273 -0.700643
vn 0.707123 0.707091 0.000000
vn 0.707123 0.707091 0.000000
vn 0.707123 0.707091 0.000000
vn 0.707123 0.707091 0.000000
vn 0.013062 0.711596 0.702467
vn 0.721721 0.015435 0.692012
vn 0.712912 0.033215 0.700467
vn 0.027971 0.704511 0.709141
vn 0.728930 0.000000 -0.684589
vn 0.728930 0.000000 -0.684589
vn 0.000337 0.715877 0.698227
vn 0.729094 0.000000 0.684414
vn 0.729094 0.000000 0.684414
vn 1.000000 0.000000 0.000000
vn 1.000000 0.000000 0.000000
vn 1.000000 0.000000 0.000000
vn 1.000000 0.000000 0.000000
vn 0.000000 0.000000 -1.000000
vn 0.000000 0.000000 -1.000000
vn 0.000000 0.000000 -1.000000
vn 0.000000 0.000000 -1.000000
vn 0.008950 0.999960 -0.000000
vn 0.317741 0.948178 -0.000000
vn 0.317741 0.948178 -0.000000
vn 0.008962 0.999960 -0.000000
vn 0.824996 0.565139 -0.000000
vn 0.972455 0.233090 -0.000467
vn 0.972456 0.233087 -0.000467
vn 0.824996 0.565139 -0.000000
vn 0.010609 0.725074 -0.688590
vn 0.004265 0.727363 -0.686240
vn 0.000000 1.000000 0.000000
vn 0.000000 1.000000 0.000000
vn 0.390135 0.516747 -0.762081
vn 0.390142 0.516742 -0.762081
vn 0.716494 0.177314 -0.674683
vn 0.721417 0.170005 -0.671309
vn 0.000000 0.000000 -1.000000
vn 0.000059 0.000000 -1.000000
vn 0.001242 0.564797 0.825229
vn 0.001242 0.564797 0.825229
vn 0.637598 0.720955 0.271466
vn 0.637598 0.720955 0.271466
vn 0.637598 0.720955 0.271466
vn 0.544197 0.155025 0.824510
vn 0.544197 0.155025 0.824510
vn 0.000216 0.728769 -0.684760
vn 0.000115 0.728805 -0.684722
vn 0.000000 0.728846 -0.684678
vn 0.000000 0.728846 -0.684678
vn 0.000000 0.729038 0.684473
vn 0.000000 0.729038 0.684473
vn 0.000000 0.729038 0.684473
vn 0.000000 0.729038 0.684473
vn 0.000000 1.000000 0.000000
vn 0.000000 1.000000 0.000000
vn 0.000000 1.000000 0.000000
vn 0.000000 1.000000 0.000000
vn 0.682928 0.212893 0.698774
vn 0.682804 0.213030 0.698854
vn 0.724445 0.165453 -0.669182
vn 0.724442 0.165456 -0.669184
vn 0.974900 0.222645 -0.000480
vn 0.974900 0.222645 -0.000480
vn 0.974900 0.222642 -0.000480
vn 0.390047 0.511031 -0.765970
vn 0.391172 0.511632 -0.764995
vn 0.820901 0.571070 0.000000
vn 0.820901 0.571070 0.000000
vn 0.609556 0.309353 0.729892
vn 0.626656 0.291940 0.722546
vn 0.605651 0.795730 0.000000
vn 0.605651 0.795730 0.000000
vn 0.605651 0.795730 0.000000
vn 0.605651 0.795730 0.000000
vn 0.599512 0.319305 0.733914
vn 0.599512 0.319305 0.733914
s 1
g pCube64
usemtl initialShadingGroup
f 4/1/1 5/37/2 9/2/3 8/15/4
f 5/37/2 4/19/1 6/56/5 7/63/6
s 2
f 3/36/7 9/2/8 5/37/9 41/47/10 40/48/11
f 5/37/9 7/63/12 54/73/13 62/65/14 58/68/15 42/46/16 41/47/10
s 3
f 10/3/17 50/50/18 49/42/19 25/59/20 24/12/21
s 4
f 11/4/22 10/3/23 19/8/24 18/11/25
f 12/40/26 11/4/22 16/5/27 15/20/28
s 5
f 18/11/29 20/6/30 22/13/31 21/7/32
f 20/6/30 19/8/33 26/9/34 28/18/35
s 4
f 24/12/36 23/64/37 27/10/38 26/9/39
s 5
f 28/18/35 27/10/40 29/57/41 30/58/42
s 4
f 18/11/25 21/7/43 16/5/27 11/4/22
f 29/57/44 27/10/38 23/64/37 61/72/45 65/67/46 56/78/47
f 26/9/39 19/8/24 10/3/23 24/12/36
s 7
f 20/14/48 4/1/49 8/15/50 22/16/51
f 28/18/52 30/58/53 6/56/54 4/19/49 20/6/48
s 3
f 10/3/17 11/4/55 12/40/56 51/49/57 50/50/18
s off
f 15/20/58 16/5/59 17/17/60
s 5
f 18/11/29 19/8/33 20/6/30
s 3
f 23/64/61 24/12/21 25/59/20
s 5
f 26/9/34 27/10/40 28/18/35
s 4
f 35/25/62 36/38/63 12/40/26 15/20/28 13/31/64
s 8
f 32/28/65 31/21/66 34/22/67 33/29/68
s off
f 33/29/69 34/23/70 37/24/71 38/34/72
s 3
f 36/38/73 35/25/74 38/26/75 37/39/76
s 8
f 2/27/77 1/35/78 32/28/65 33/29/68
s 3
f 36/38/73 37/39/76 47/41/79 51/49/57 12/40/56
f 38/30/75 35/25/74 13/31/80 14/32/81
s off
f 14/33/82 2/27/83 33/29/84 38/34/85
s 2
f 40/48/11 39/43/86 31/21/87 32/28/88 1/35/89 3/36/7
s 10
f 46/44/90 45/52/91 48/53/92 47/41/93
s 11
f 45/52/94 44/61/95 49/42/96 48/53/97
s 8
f 34/45/67 31/21/66 39/43/98 46/44/99
s 10
f 37/39/100 34/45/101 46/44/90 47/41/93
s 8
f 39/43/98 43/51/102 45/52/103 46/44/99
f 43/51/102 42/46/104 44/61/105 45/52/103
s 2
f 42/46/16 43/51/106 52/54/107 41/47/10
f 41/47/10 52/54/107 40/48/11
f 40/48/11 52/54/107 43/51/106 39/43/86
s 3
f 47/41/79 48/53/108 53/55/109 51/49/57
s off
f 51/49/110 53/55/111 50/50/112
s 3
f 50/50/18 53/55/113 48/53/114 49/42/19
s 8
f 55/74/115 54/73/116 7/63/117 6/56/118
s off
f 56/78/119 57/77/120 30/58/121 29/57/122
f 57/77/123 55/74/124 6/56/125 30/58/126
s 3
f 23/64/61 25/59/20 60/62/127 61/72/128
s 8
f 44/61/105 42/46/104 58/68/129 59/60/130
s 11
f 44/61/95 59/60/131 60/62/132 25/59/133 49/42/96
s 8
f 58/68/129 62/65/134 63/66/135 59/60/130
s 11
f 59/69/131 63/66/136 64/70/137 60/62/132
s 3
f 60/71/127 64/70/138 65/67/139 61/72/128
s 8
f 63/66/135 62/65/134 54/73/116 55/74/115
s off
f 63/75/140 55/76/141 57/77/142 64/70/143
s 3
f 56/78/144 65/67/139 64/70/138 57/77/145
s 13
f 69/79/146 70/80/147 74/81/148 73/82/149
f 70/80/147 69/83/146 71/84/150 72/85/151
s 14
f 68/86/152 74/81/153 70/80/154 106/87/155 105/88/156
f 70/80/154 72/85/157 119/89/158 127/90/159 123/91/160 107/92/161 106/87/155
s 15
f 75/93/162 115/94/163 114/95/164 90/96/165 89/97/166
s 16
f 76/98/167 75/93/168 84/99/169 83/100/170
f 77/101/171 76/98/167 81/102/172 80/103/173
s 17
f 83/100/174 85/104/175 87/105/176 86/106/177
f 85/104/175 84/99/178 91/107/179 93/108/180
s 16
f 89/97/181 88/109/182 92/110/183 91/107/184
s 17
f 93/108/180 92/110/185 94/111/186 95/112/187
s 16
f 83/100/170 86/106/188 81/102/172 76/98/167
f 94/111/189 92/110/183 88/109/182 126/113/190 130/114/191 121/115/192
f 91/107/184 84/99/169 75/93/168 89/97/181
s 19
f 85/116/193 69/79/194 73/82/195 87/117/196
f 93/108/197 95/112/198 71/84/199 69/83/194 85/104/193
s 15
f 75/93/162 76/98/200 77/101/201 116/118/202 115/94/163
s off
f 80/103/203 81/102/204 82/119/205
s 17
f 83/100/174 84/99/178 85/104/175
s 15
f 88/109/206 89/97/166 90/96/165
s 17
f 91/107/179 92/110/185 93/108/180
s 16
f 100/120/207 101/121/208 77/101/171 80/103/173 78/122/209
s 20
f 97/123/210 96/124/211 99/125/212 98/126/213
s off
f 98/126/214 99/127/215 102/128/216 103/129/217
s 15
f 101/121/218 100/120/219 103/130/220 102/131/221
s 20
f 67/132/222 66/133/223 97/123/210 98/126/213
s 15
f 101/121/218 102/131/221 112/134/224 116/118/202 77/101/201
f 103/135/220 100/120/219 78/122/225 79/136/226
s off
f 79/137/227 67/132/228 98/126/229 103/129/230
s 14
f 105/88/156 104/138/231 96/124/232 97/123/233 66/133/234 68/86/152
s 22
f 111/139/235 110/140/236 113/141/237 112/134/238
s 23
f 110/140/239 109/142/240 114/95/241 113/141/242
s 20
f 99/143/212 96/124/211 104/138/243 111/139/244
s 22
f 102/131/245 99/143/246 111/139/235 112/134/238
s 20
f 104/138/243 108/144/247 110/140/248 111/139/244
f 108/144/247 107/92/249 109/142/250 110/140/248
s 14
f 107/92/161 108/144/251 117/145/252 106/87/155
f 106/87/155 117/145/252 105/88/156
f 105/88/156 117/145/252 108/144/251 104/138/231
s 15
f 112/134/224 113/141/253 118/146/254 116/118/202
s off
f 116/118/255 118/146/256 115/94/257
s 15
f 115/94/163 118/146/258 113/141/259 114/95/164
s 20
f 120/147/260 119/89/261 72/85/262 71/84/263
s off
f 121/115/264 122/148/265 95/112/266 94/111/267
f 122/148/268 120/147/269 71/84/270 95/112/271
s 15
f 88/109/206 90/96/165 125/149/272 126/113/273
s 20
f 109/142/250 107/92/249 123/91/274 124/150/275
s 23
f 109/142/240 124/150/276 125/149/277 90/96/278 114/95/241
s 20
f 123/91/274 127/90/279 128/151/280 124/150/275
s 23
f 124/152/276 128/151/281 129/153/282 125/149/277
s 15
f 125/154/272 129/153/283 130/114/284 126/113/273
s 20
f 128/151/280 127/90/279 119/89/261 120/147/260
s off
f 128/155/285 120/156/286 122/148/287 129/153/288
s 15
f 121/115/289 130/114/284 129/153/283 122/148/290
