# This file uses centimeters as units for non-parametric coordinates.

mtllib table.mtl
g default
v -499.496735 87.449188 -2265.396973
v -498.727142 87.449188 -2266.537109
v -498.388306 87.449188 -2267.901367
v -498.531769 87.449188 -2269.281006
v -499.140961 87.449188 -2270.524414
v -500.148712 87.449188 -2271.494385
v -501.428925 87.449188 -2272.051270
v -502.806427 87.449188 -2272.151855
v -504.146515 87.449188 -2271.762695
v -505.262634 87.449188 -2270.948486
v -506.044891 87.449188 -2269.789795
v -506.371765 87.449188 -2268.445312
v -506.217651 87.449188 -2267.057129
v -505.608459 87.449188 -2265.813721
v -504.611328 87.449188 -2264.852295
v -503.343109 87.449188 -2264.275391
v -501.952942 87.449188 -2264.193604
v -500.622528 87.449188 -2264.570312
v -449.705475 87.347374 -2217.478027
v -435.550110 87.347374 -2238.555176
v -429.454773 87.347374 -2263.196045
v -432.147339 87.347374 -2288.441650
v -443.317078 87.347374 -2311.238770
v -461.620850 87.347374 -2328.846436
v -484.826111 87.347374 -2339.132324
v -510.153687 87.347374 -2340.852295
v -534.545898 87.347374 -2333.810547
v -555.062683 87.347374 -2318.848633
v -569.222839 87.347374 -2297.781250
v -575.317505 87.347374 -2273.139648
v -572.616455 87.347374 -2247.887451
v -561.447754 87.347374 -2225.092285
v -543.151428 87.347374 -2207.489258
v -519.944824 87.347374 -2197.205078
v -494.612274 87.347374 -2195.475586
v -470.218933 87.347374 -2202.520264
v -449.705475 91.423706 -2217.478027
v -435.550110 91.423706 -2238.555176
v -429.454773 91.423706 -2263.196045
v -432.147339 91.423706 -2288.441650
v -443.317078 91.423706 -2311.238770
v -461.620850 91.423706 -2328.846436
v -484.826111 91.423706 -2339.132324
v -510.153687 91.423706 -2340.852295
v -534.545898 91.423706 -2333.810547
v -555.062683 91.423706 -2318.848633
v -569.222839 91.423706 -2297.781250
v -575.317505 91.423706 -2273.139648
v -572.616455 91.423706 -2247.887451
v -561.447754 91.423706 -2225.092285
v -543.151428 91.423706 -2207.489258
v -519.944824 91.423706 -2197.205078
v -494.612274 91.423706 -2195.475586
v -470.218933 91.423706 -2202.520264
v -477.726501 91.282661 -2244.449463
v -471.103638 91.282661 -2254.303711
v -468.245850 91.282661 -2265.846680
v -469.504974 91.282661 -2277.658203
v -474.733521 91.282661 -2288.329590
v -483.296692 91.282661 -2296.565186
v -494.166321 91.282661 -2301.374268
v -506.018311 91.282661 -2302.192627
v -517.434326 91.282661 -2298.886230
v -527.034668 91.282661 -2291.895508
v -533.661865 91.282661 -2282.022949
v -536.507751 91.282661 -2270.493896
v -535.258484 91.282661 -2258.674805
v -530.029907 91.282661 -2248.003418
v -521.456909 91.282661 -2239.775391
v -510.599182 91.282661 -2234.952393
v -498.742828 91.282661 -2234.152344
v -487.330078 91.282661 -2237.443848
v -502.385132 91.282661 -2268.170898
v -499.496735 7.153319 -2265.396973
v -498.727142 7.153319 -2266.537109
v -498.388306 7.153319 -2267.901367
v -498.531769 7.153319 -2269.281006
v -499.140961 7.153319 -2270.524414
v -500.148712 7.153319 -2271.494385
v -501.428925 7.153319 -2272.051270
v -502.806427 7.153319 -2272.151855
v -504.146515 7.153319 -2271.762695
v -505.262634 7.153319 -2270.948486
v -506.044891 7.153319 -2269.789795
v -506.371765 7.153319 -2268.445312
v -506.217651 7.153319 -2267.057129
v -505.608459 7.153319 -2265.813721
v -504.611328 7.153319 -2264.852295
v -503.343109 7.153319 -2264.275391
v -501.952942 7.153319 -2264.193604
v -500.622528 7.153319 -2264.570312
v -484.097168 7.153319 -2250.575928
v -479.185242 7.153319 -2257.891113
v -477.064880 7.153319 -2266.444336
v -478.010651 7.153319 -2275.207520
v -481.887421 7.153319 -2283.119873
v -488.227905 7.153319 -2289.228027
v -496.287415 7.153319 -2292.796387
v -505.079590 7.153319 -2293.400635
v -513.548462 7.153319 -2290.955078
v -520.673096 7.153319 -2285.760498
v -525.579102 7.153319 -2278.444336
v -527.700562 7.153319 -2269.887695
v -526.768311 7.153319 -2261.130127
v -522.891479 7.153319 -2253.217773
v -516.538086 7.153319 -2247.105225
v -508.476929 7.153319 -2243.539062
v -499.690643 7.153319 -2242.935791
v -491.216980 7.153319 -2245.376953
v -484.097168 4.979048 -2250.575928
v -479.185242 4.979048 -2257.891113
v -477.064880 4.979048 -2266.444336
v -478.010651 4.979048 -2275.207520
v -481.887421 4.979048 -2283.119873
v -488.227905 4.979048 -2289.228027
v -496.287415 4.979048 -2292.796387
v -505.079590 4.979048 -2293.400635
v -513.548462 4.979048 -2290.955078
v -520.673096 4.979048 -2285.760498
v -525.579102 4.979048 -2278.444336
v -527.700562 4.979048 -2269.887695
v -526.768311 4.979048 -2261.130127
v -522.891479 4.979048 -2253.217773
v -516.538086 4.979048 -2247.105225
v -508.476929 4.979048 -2243.539062
v -499.690643 4.979048 -2242.935791
v -491.216980 4.979048 -2245.376953
vt 0.573413 0.129530
vt 0.559847 0.106032
vt 0.619694 0.055814
vt 0.646827 0.102809
vt 0.539062 0.088592
vt 0.578125 0.020934
vt 0.513566 0.079312
vt 0.527133 0.002374
vt 0.486434 0.079312
vt 0.472867 0.002374
vt 0.460938 0.088592
vt 0.421875 0.020934
vt 0.440153 0.106032
vt 0.380306 0.055814
vt 0.426587 0.129530
vt 0.353173 0.102809
vt 0.421875 0.156250
vt 0.343750 0.156250
vt 0.426587 0.182970
vt 0.353173 0.209691
vt 0.440153 0.206468
vt 0.380306 0.256686
vt 0.460938 0.223908
vt 0.421875 0.291566
vt 0.486434 0.233188
vt 0.472867 0.310126
vt 0.513566 0.233188
vt 0.527133 0.310126
vt 0.539062 0.223908
vt 0.578125 0.291566
vt 0.559847 0.206468
vt 0.619694 0.256686
vt 0.573413 0.182970
vt 0.646827 0.209691
vt 0.578125 0.156250
vt 0.656250 0.156250
vt 0.375000 0.312500
vt 0.388889 0.312500
vt 0.388889 0.688440
vt 0.375000 0.688440
vt 0.402778 0.312500
vt 0.402778 0.688440
vt 0.416667 0.312500
vt 0.416667 0.688440
vt 0.430556 0.312500
vt 0.430556 0.688440
vt 0.444444 0.312500
vt 0.444444 0.688440
vt 0.458333 0.312500
vt 0.458333 0.688440
vt 0.472222 0.312500
vt 0.472222 0.688440
vt 0.486111 0.312500
vt 0.486111 0.688440
vt 0.500000 0.312500
vt 0.500000 0.688440
vt 0.513889 0.312500
vt 0.513889 0.688440
vt 0.527778 0.312500
vt 0.527778 0.688440
vt 0.541667 0.312500
vt 0.541667 0.688440
vt 0.555556 0.312500
vt 0.555556 0.688440
vt 0.569445 0.312500
vt 0.569445 0.688440
vt 0.583333 0.312500
vt 0.583333 0.688440
vt 0.597222 0.312500
vt 0.597222 0.688440
vt 0.611111 0.312500
vt 0.611111 0.688440
vt 0.625000 0.312500
vt 0.625000 0.688440
vt 0.646827 0.897191
vt 0.619694 0.944186
vt 0.559847 0.893968
vt 0.573413 0.870470
vt 0.578125 0.979066
vt 0.539062 0.911408
vt 0.527133 0.997626
vt 0.513566 0.920688
vt 0.472867 0.997626
vt 0.486434 0.920688
vt 0.421875 0.979066
vt 0.460938 0.911408
vt 0.380306 0.944186
vt 0.440153 0.893968
vt 0.353173 0.897191
vt 0.426587 0.870470
vt 0.343750 0.843750
vt 0.421875 0.843750
vt 0.353173 0.790309
vt 0.426587 0.817030
vt 0.380306 0.743315
vt 0.440153 0.793532
vt 0.421875 0.708434
vt 0.460938 0.776092
vt 0.472867 0.689874
vt 0.486434 0.766812
vt 0.527133 0.689874
vt 0.513566 0.766812
vt 0.578125 0.708434
vt 0.539062 0.776092
vt 0.619694 0.743314
vt 0.559847 0.793532
vt 0.646827 0.790309
vt 0.573413 0.817030
vt 0.656250 0.843750
vt 0.578125 0.843750
vt 0.500000 0.837500
vt 0.000000 0.000000
vt 1.000000 0.000000
vt 1.000000 1.000000
vt 0.000000 1.000000
vt 0.000000 0.000000
vt 1.000000 0.000000
vt 1.000000 1.000000
vt 0.000000 1.000000
vt 0.000000 0.000000
vt 1.000000 0.000000
vt 1.000000 1.000000
vt 0.000000 1.000000
vt 0.000000 0.000000
vt 1.000000 0.000000
vt 1.000000 1.000000
vt 0.000000 1.000000
vt 0.000000 0.000000
vt 1.000000 0.000000
vt 1.000000 1.000000
vt 0.000000 1.000000
vt 0.000000 0.000000
vt 1.000000 0.000000
vt 1.000000 1.000000
vt 0.000000 1.000000
vt 0.000000 0.000000
vt 1.000000 0.000000
vt 1.000000 1.000000
vt 0.000000 1.000000
vt 0.000000 0.000000
vt 1.000000 0.000000
vt 1.000000 1.000000
vt 0.000000 1.000000
vt 0.000000 0.000000
vt 1.000000 0.000000
vt 1.000000 1.000000
vt 0.000000 1.000000
vt 0.000000 0.000000
vt 1.000000 0.000000
vt 1.000000 1.000000
vt 0.000000 1.000000
vt 0.000000 0.000000
vt 1.000000 0.000000
vt 1.000000 1.000000
vt 0.000000 1.000000
vt 0.000000 0.000000
vt 1.000000 0.000000
vt 1.000000 1.000000
vt 0.000000 1.000000
vt 0.000000 0.000000
vt 1.000000 0.000000
vt 1.000000 1.000000
vt 0.000000 1.000000
vt 0.000000 0.000000
vt 1.000000 0.000000
vt 1.000000 1.000000
vt 0.000000 1.000000
vt 0.000000 0.000000
vt 1.000000 0.000000
vt 1.000000 1.000000
vt 0.000000 1.000000
vt 0.000000 0.000000
vt 1.000000 0.000000
vt 1.000000 1.000000
vt 0.000000 1.000000
vt 0.000000 0.000000
vt 1.000000 0.000000
vt 1.000000 1.000000
vt 0.000000 1.000000
vt 0.000000 0.000000
vt 1.000000 0.000000
vt 1.000000 1.000000
vt 0.000000 1.000000
vt 0.000000 0.000000
vt 1.000000 0.000000
vt 1.000000 1.000000
vt 0.000000 1.000000
vt 0.000000 0.000000
vt 1.000000 0.000000
vt 1.000000 1.000000
vt 0.000000 1.000000
vt 0.000000 0.000000
vt 1.000000 0.000000
vt 1.000000 1.000000
vt 0.000000 1.000000
vt 0.000000 0.000000
vt 1.000000 0.000000
vt 1.000000 1.000000
vt 0.000000 1.000000
vt 0.000000 0.000000
vt 1.000000 0.000000
vt 1.000000 1.000000
vt 0.000000 1.000000
vt 0.000000 0.000000
vt 1.000000 0.000000
vt 1.000000 1.000000
vt 0.000000 1.000000
vt 0.000000 0.000000
vt 1.000000 0.000000
vt 1.000000 1.000000
vt 0.000000 1.000000
vt 0.000000 0.000000
vt 1.000000 0.000000
vt 1.000000 1.000000
vt 0.000000 1.000000
vt 0.000000 0.000000
vt 1.000000 0.000000
vt 1.000000 1.000000
vt 0.000000 1.000000
vt 0.000000 0.000000
vt 1.000000 0.000000
vt 1.000000 1.000000
vt 0.000000 1.000000
vt 0.000000 0.000000
vt 1.000000 0.000000
vt 1.000000 1.000000
vt 0.000000 1.000000
vt 0.000000 0.000000
vt 1.000000 0.000000
vt 1.000000 1.000000
vt 0.000000 1.000000
vt 0.000000 0.000000
vt 1.000000 0.000000
vt 1.000000 1.000000
vt 0.000000 1.000000
vt 0.000000 0.000000
vt 1.000000 0.000000
vt 1.000000 1.000000
vt 0.000000 1.000000
vt 0.000000 0.000000
vt 1.000000 0.000000
vt 1.000000 1.000000
vt 0.000000 1.000000
vt 0.000000 0.000000
vt 1.000000 0.000000
vt 1.000000 1.000000
vt 0.000000 1.000000
vt 0.000000 0.000000
vt 1.000000 0.000000
vt 1.000000 1.000000
vt 0.000000 1.000000
vt 0.000000 0.000000
vt 1.000000 0.000000
vt 1.000000 1.000000
vt 0.000000 1.000000
vt 0.000000 0.000000
vt 1.000000 0.000000
vt 1.000000 1.000000
vt 0.000000 1.000000
vt 0.000000 0.000000
vt 1.000000 0.000000
vt 1.000000 1.000000
vt 0.000000 1.000000
vt 0.000000 0.000000
vt 1.000000 0.000000
vt 1.000000 1.000000
vt 0.000000 1.000000
vt 0.000000 0.000000
vt 1.000000 0.000000
vt 1.000000 1.000000
vt 0.000000 1.000000
vt 0.000000 0.000000
vt 1.000000 0.000000
vt 1.000000 1.000000
vt 0.000000 1.000000
vt 0.000000 0.000000
vt 1.000000 0.000000
vt 1.000000 1.000000
vt 0.000000 1.000000
vt 0.000000 0.000000
vt 1.000000 0.000000
vt 1.000000 1.000000
vt 0.000000 1.000000
vt 0.000000 0.000000
vt 1.000000 0.000000
vt 1.000000 1.000000
vt 0.000000 1.000000
vt 0.000000 0.000000
vt 1.000000 0.000000
vt 1.000000 1.000000
vt 0.000000 1.000000
vt 0.000000 0.000000
vt 1.000000 0.000000
vt 1.000000 1.000000
vt 0.000000 1.000000
vt 0.000000 0.000000
vt 1.000000 0.000000
vt 1.000000 1.000000
vt 0.000000 1.000000
vt 0.000000 0.000000
vt 1.000000 0.000000
vt 1.000000 1.000000
vt 0.000000 1.000000
vt 0.000000 0.000000
vt 1.000000 0.000000
vt 1.000000 1.000000
vt 0.000000 1.000000
vt 0.000000 0.000000
vt 1.000000 0.000000
vt 1.000000 1.000000
vt 0.000000 1.000000
vt 0.000000 0.000000
vt 1.000000 0.000000
vt 1.000000 1.000000
vt 0.000000 1.000000
vt 0.000000 0.000000
vt 1.000000 0.000000
vt 1.000000 1.000000
vt 0.000000 1.000000
vt 0.000000 0.000000
vt 1.000000 0.000000
vt 1.000000 1.000000
vt 0.000000 1.000000
vt 0.000000 0.000000
vt 1.000000 0.000000
vt 1.000000 1.000000
vt 0.000000 1.000000
vn -0.001062 -0.999999 -0.001021
vn -0.001347 -0.999999 -0.000597
vn -0.001347 -0.999999 -0.000597
vn -0.001062 -0.999999 -0.001022
vn -0.001470 -0.999999 -0.000100
vn -0.001470 -0.999999 -0.000100
vn -0.001416 -0.999999 0.000408
vn -0.001416 -0.999999 0.000408
vn -0.001190 -0.999999 0.000868
vn -0.001190 -0.999999 0.000868
vn -0.000821 -0.999999 0.001223
vn -0.000822 -0.999999 0.001223
vn -0.000354 -0.999999 0.001431
vn -0.000354 -0.999999 0.001431
vn 0.000157 -0.999999 0.001465
vn 0.000157 -0.999999 0.001465
vn 0.000648 -0.999999 0.001323
vn 0.000648 -0.999999 0.001323
vn 0.001062 -0.999999 0.001022
vn 0.001062 -0.999999 0.001022
vn 0.001347 -0.999999 0.000597
vn 0.001347 -0.999999 0.000597
vn 0.001470 -0.999999 0.000099
vn 0.001470 -0.999999 0.000100
vn 0.001415 -0.999999 -0.000409
vn 0.001415 -0.999999 -0.000409
vn 0.001190 -0.999999 -0.000868
vn 0.001190 -0.999999 -0.000868
vn 0.000823 -0.999999 -0.001223
vn 0.000822 -0.999999 -0.001223
vn 0.000354 -0.999999 -0.001430
vn 0.000354 -0.999999 -0.001430
vn -0.000157 -0.999999 -0.001465
vn -0.000157 -0.999999 -0.001465
vn -0.000648 -0.999999 -0.001323
vn -0.000648 -0.999999 -0.001323
vn 0.720635 0.000000 0.693314
vn 0.914319 0.000000 0.404995
vn 0.914319 0.000000 0.404995
vn 0.720635 0.000000 0.693314
vn 0.997682 0.000000 0.068052
vn 0.997682 0.000000 0.068052
vn 0.960803 0.000000 -0.277231
vn 0.960803 0.000000 -0.277231
vn 0.807896 0.000000 -0.589325
vn 0.807896 0.000000 -0.589325
vn 0.557753 0.000000 -0.830007
vn 0.557753 0.000000 -0.830007
vn 0.240140 0.000000 -0.970738
vn 0.240140 0.000000 -0.970738
vn -0.106428 0.000000 -0.994320
vn -0.106428 0.000000 -0.994320
vn -0.439988 0.000000 -0.898004
vn -0.439988 0.000000 -0.898004
vn -0.720499 0.000000 -0.693456
vn -0.720499 0.000000 -0.693456
vn -0.914259 0.000000 -0.405131
vn -0.914259 0.000000 -0.405131
vn -0.997695 0.000000 -0.067860
vn -0.997695 0.000000 -0.067860
vn -0.960771 0.000000 0.277344
vn -0.960771 0.000000 0.277344
vn -0.807932 0.000000 0.589276
vn -0.807932 0.000000 0.589276
vn -0.557724 0.000000 0.830027
vn -0.557724 0.000000 0.830027
vn -0.240255 0.000000 0.970710
vn -0.240255 0.000000 0.970710
vn 0.106287 0.000000 0.994336
vn 0.106287 0.000000 0.994336
vn 0.439986 0.000000 0.898005
vn 0.439986 0.000000 0.898005
vn -0.002613 0.999993 -0.002515
vn -0.003316 0.999993 -0.001469
vn -0.002708 0.999996 -0.001200
vn -0.002134 0.999996 -0.002054
vn -0.003619 0.999994 -0.000247
vn -0.002955 0.999996 -0.000202
vn -0.003485 0.999993 0.001006
vn -0.002846 0.999996 0.000821
vn -0.002931 0.999994 0.002138
vn -0.002393 0.999996 0.001746
vn -0.002022 0.999994 0.003011
vn -0.001652 0.999996 0.002459
vn -0.000871 0.999993 0.003521
vn -0.000712 0.999996 0.002875
vn 0.000386 0.999994 0.003606
vn 0.000315 0.999996 0.002946
vn 0.001596 0.999993 0.003257
vn 0.001303 0.999996 0.002660
vn 0.002613 0.999993 0.002515
vn 0.002134 0.999996 0.002054
vn 0.003315 0.999993 0.001469
vn 0.002708 0.999996 0.001200
vn 0.003618 0.999993 0.000247
vn 0.002955 0.999996 0.000201
vn 0.003485 0.999994 -0.001005
vn 0.002847 0.999996 -0.000821
vn 0.002930 0.999993 -0.002138
vn 0.002393 0.999996 -0.001746
vn 0.002023 0.999993 -0.003010
vn 0.001651 0.999996 -0.002458
vn 0.000871 0.999994 -0.003520
vn 0.000712 0.999996 -0.002876
vn -0.000386 0.999994 -0.003606
vn -0.000315 0.999996 -0.002945
vn -0.001596 0.999993 -0.003257
vn -0.001303 0.999996 -0.002660
vn 0.000000 1.000000 0.000000
vn 0.914439 0.000000 0.404723
vn 0.720050 0.000000 0.693923
vn 0.720050 0.000000 0.693923
vn 0.914439 0.000000 0.404723
vn 0.997475 0.000000 0.071022
vn 0.997475 0.000000 0.071022
vn 0.961214 0.000000 -0.275803
vn 0.961214 0.000000 -0.275803
vn 0.807472 0.000000 -0.589906
vn 0.807472 0.000000 -0.589906
vn 0.555069 0.000000 -0.831804
vn 0.555069 0.000000 -0.831804
vn 0.240163 0.000000 -0.970733
vn 0.240163 0.000000 -0.970733
vn -0.105596 0.000000 -0.994409
vn -0.105596 0.000000 -0.994409
vn -0.439962 0.000000 -0.898016
vn -0.439962 0.000000 -0.898016
vn -0.720599 0.000000 -0.693352
vn -0.720599 0.000000 -0.693352
vn -0.914275 0.000000 -0.405095
vn -0.914275 0.000000 -0.405095
vn -0.998008 0.000000 -0.063094
vn -0.998008 0.000000 -0.063094
vn -0.960412 0.000000 0.278584
vn -0.960412 0.000000 0.278584
vn -0.808234 0.000000 0.588862
vn -0.808234 0.000000 0.588862
vn -0.561814 0.000000 0.827264
vn -0.561814 0.000000 0.827264
vn -0.240508 0.000000 0.970647
vn -0.240508 0.000000 0.970647
vn 0.107802 0.000000 0.994172
vn 0.107802 0.000000 0.994172
vn 0.439962 0.000000 0.898016
vn 0.439962 0.000000 0.898016
vn 0.000000 1.000000 0.000000
vn 0.000000 1.000000 0.000000
vn 0.000000 1.000000 0.000000
vn 0.000000 1.000000 0.000000
vn 0.000000 1.000000 0.000000
vn 0.000000 1.000000 0.000000
vn 0.000000 1.000000 0.000000
vn 0.000000 1.000000 0.000000
vn 0.000000 1.000000 0.000000
vn 0.000000 1.000000 0.000000
vn 0.000000 1.000000 0.000000
vn 0.000000 1.000000 0.000000
vn 0.000000 1.000000 0.000000
vn 0.000000 1.000000 0.000000
vn 0.000000 1.000000 0.000000
vn 0.000000 1.000000 0.000000
vn 0.000000 1.000000 -0.000000
vn 0.000000 1.000000 -0.000000
vn 0.000000 1.000000 -0.000000
vn 0.000000 1.000000 -0.000000
vn 0.000000 1.000000 0.000000
vn 0.000000 1.000000 0.000000
vn 0.000000 1.000000 0.000000
vn 0.000000 1.000000 0.000000
vn 0.000000 1.000000 0.000000
vn 0.000000 1.000000 0.000000
vn 0.000000 1.000000 0.000000
vn 0.000000 1.000000 0.000000
vn 0.000000 1.000000 0.000000
vn 0.000000 1.000000 0.000000
vn 0.000000 1.000000 0.000000
vn 0.000000 1.000000 0.000000
vn 0.000000 1.000000 0.000000
vn 0.000000 1.000000 0.000000
vn 0.000000 1.000000 0.000000
vn 0.000000 1.000000 0.000000
vn 0.914247 0.000000 0.405158
vn 0.720869 0.000000 0.693072
vn 0.720869 0.000000 0.693072
vn 0.914247 0.000000 0.405158
vn 0.997707 0.000000 0.067676
vn 0.997707 0.000000 0.067676
vn 0.960634 0.000000 -0.277816
vn 0.960634 0.000000 -0.277816
vn 0.808173 0.000000 -0.588945
vn 0.808173 0.000000 -0.588945
vn 0.557753 0.000000 -0.830007
vn 0.557753 0.000000 -0.830007
vn 0.240347 0.000000 -0.970687
vn 0.240347 0.000000 -0.970687
vn -0.106070 0.000000 -0.994359
vn -0.106070 0.000000 -0.994359
vn -0.439975 0.000000 -0.898010
vn -0.439975 0.000000 -0.898010
vn -0.720807 0.000000 -0.693136
vn -0.720807 0.000000 -0.693136
vn -0.914390 0.000000 -0.404834
vn -0.914390 0.000000 -0.404834
vn -0.997650 0.000000 -0.068523
vn -0.997650 0.000000 -0.068523
vn -0.960817 0.000000 0.277183
vn -0.960817 0.000000 0.277183
vn -0.807907 0.000000 0.589310
vn -0.807907 0.000000 0.589310
vn -0.557454 0.000000 0.830208
vn -0.557454 0.000000 0.830208
vn -0.240233 0.000000 0.970715
vn -0.240233 0.000000 0.970715
vn 0.105885 0.000000 0.994378
vn 0.105885 0.000000 0.994378
vn 0.439986 0.000000 0.898005
vn 0.439986 0.000000 0.898005
s 1
g polySurface187
usemtl initialShadingGroup
f 1/1/1 2/2/2 20/3/3 19/4/4
f 2/2/2 3/5/5 21/6/6 20/3/3
f 3/5/5 4/7/7 22/8/8 21/6/6
f 4/7/7 5/9/9 23/10/10 22/8/8
f 5/9/9 6/11/11 24/12/12 23/10/10
f 6/11/11 7/13/13 25/14/14 24/12/12
f 7/13/13 8/15/15 26/16/16 25/14/14
f 8/15/15 9/17/17 27/18/18 26/16/16
f 9/17/17 10/19/19 28/20/20 27/18/18
f 10/19/19 11/21/21 29/22/22 28/20/20
f 11/21/21 12/23/23 30/24/24 29/22/22
f 12/23/23 13/25/25 31/26/26 30/24/24
f 13/25/25 14/27/27 32/28/28 31/26/26
f 14/27/27 15/29/29 33/30/30 32/28/28
f 15/29/29 16/31/31 34/32/32 33/30/30
f 16/31/31 17/33/33 35/34/34 34/32/32
f 17/33/33 18/35/35 36/36/36 35/34/34
f 18/35/35 1/1/1 19/4/4 36/36/36
s 2
f 19/37/37 20/38/38 38/39/39 37/40/40
f 20/38/38 21/41/41 39/42/42 38/39/39
f 21/41/41 22/43/43 40/44/44 39/42/42
f 22/43/43 23/45/45 41/46/46 40/44/44
f 23/45/45 24/47/47 42/48/48 41/46/46
f 24/47/47 25/49/49 43/50/50 42/48/48
f 25/49/49 26/51/51 44/52/52 43/50/50
f 26/51/51 27/53/53 45/54/54 44/52/52
f 27/53/53 28/55/55 46/56/56 45/54/54
f 28/55/55 29/57/57 47/58/58 46/56/56
f 29/57/57 30/59/59 48/60/60 47/58/58
f 30/59/59 31/61/61 49/62/62 48/60/60
f 31/61/61 32/63/63 50/64/64 49/62/62
f 32/63/63 33/65/65 51/66/66 50/64/64
f 33/65/65 34/67/67 52/68/68 51/66/66
f 34/67/67 35/69/69 53/70/70 52/68/68
f 35/69/69 36/71/71 54/72/72 53/70/70
f 36/71/71 19/73/37 37/74/40 54/72/72
s 3
f 37/75/73 38/76/74 56/77/75 55/78/76
f 38/76/74 39/79/77 57/80/78 56/77/75
f 39/79/77 40/81/79 58/82/80 57/80/78
f 40/81/79 41/83/81 59/84/82 58/82/80
f 41/83/81 42/85/83 60/86/84 59/84/82
f 42/85/83 43/87/85 61/88/86 60/86/84
f 43/87/85 44/89/87 62/90/88 61/88/86
f 44/89/87 45/91/89 63/92/90 62/90/88
f 45/91/89 46/93/91 64/94/92 63/92/90
f 46/93/91 47/95/93 65/96/94 64/94/92
f 47/95/93 48/97/95 66/98/96 65/96/94
f 48/97/95 49/99/97 67/100/98 66/98/96
f 49/99/97 50/101/99 68/102/100 67/100/98
f 50/101/99 51/103/101 69/104/102 68/102/100
f 51/103/101 52/105/103 70/106/104 69/104/102
f 52/105/103 53/107/105 71/108/106 70/106/104
f 53/107/105 54/109/107 72/110/108 71/108/106
f 54/109/107 37/75/73 55/78/76 72/110/108
f 55/78/76 56/77/75 73/111/109
f 56/77/75 57/80/78 73/111/109
f 57/80/78 58/82/80 73/111/109
f 58/82/80 59/84/82 73/111/109
f 59/84/82 60/86/84 73/111/109
f 60/86/84 61/88/86 73/111/109
f 61/88/86 62/90/88 73/111/109
f 62/90/88 63/92/90 73/111/109
f 63/92/90 64/94/92 73/111/109
f 64/94/92 65/96/94 73/111/109
f 65/96/94 66/98/96 73/111/109
f 66/98/96 67/100/98 73/111/109
f 67/100/98 68/102/100 73/111/109
f 68/102/100 69/104/102 73/111/109
f 69/104/102 70/106/104 73/111/109
f 70/106/104 71/108/106 73/111/109
f 71/108/106 72/110/108 73/111/109
f 72/110/108 55/78/76 73/111/109
s 4
f 2/112/110 1/113/111 74/114/112 75/115/113
f 3/116/114 2/117/110 75/118/113 76/119/115
f 4/120/116 3/121/114 76/122/115 77/123/117
f 5/124/118 4/125/116 77/126/117 78/127/119
f 6/128/120 5/129/118 78/130/119 79/131/121
f 7/132/122 6/133/120 79/134/121 80/135/123
f 8/136/124 7/137/122 80/138/123 81/139/125
f 9/140/126 8/141/124 81/142/125 82/143/127
f 10/144/128 9/145/126 82/146/127 83/147/129
f 11/148/130 10/149/128 83/150/129 84/151/131
f 12/152/132 11/153/130 84/154/131 85/155/133
f 13/156/134 12/157/132 85/158/133 86/159/135
f 14/160/136 13/161/134 86/162/135 87/163/137
f 15/164/138 14/165/136 87/166/137 88/167/139
f 16/168/140 15/169/138 88/170/139 89/171/141
f 17/172/142 16/173/140 89/174/141 90/175/143
f 18/176/144 17/177/142 90/178/143 91/179/145
f 1/180/111 18/181/144 91/182/145 74/183/112
s 5
f 75/184/146 74/185/147 92/186/148 93/187/149
f 76/188/150 75/189/146 93/190/149 94/191/151
f 77/192/152 76/193/150 94/194/151 95/195/153
f 78/196/154 77/197/152 95/198/153 96/199/155
f 79/200/156 78/201/154 96/202/155 97/203/157
f 80/204/158 79/205/156 97/206/157 98/207/159
f 81/208/160 80/209/158 98/210/159 99/211/161
f 82/212/162 81/213/160 99/214/161 100/215/163
f 83/216/164 82/217/162 100/218/163 101/219/165
f 84/220/166 83/221/164 101/222/165 102/223/167
f 85/224/168 84/225/166 102/226/167 103/227/169
f 86/228/170 85/229/168 103/230/169 104/231/171
f 87/232/172 86/233/170 104/234/171 105/235/173
f 88/236/174 87/237/172 105/238/173 106/239/175
f 89/240/176 88/241/174 106/242/175 107/243/177
f 90/244/178 89/245/176 107/246/177 108/247/179
f 91/248/180 90/249/178 108/250/179 109/251/181
f 74/252/147 91/253/180 109/254/181 92/255/148
s 6
f 93/256/182 92/257/183 110/258/184 111/259/185
f 94/260/186 93/261/182 111/262/185 112/263/187
f 95/264/188 94/265/186 112/266/187 113/267/189
f 96/268/190 95/269/188 113/270/189 114/271/191
f 97/272/192 96/273/190 114/274/191 115/275/193
f 98/276/194 97/277/192 115/278/193 116/279/195
f 99/280/196 98/281/194 116/282/195 117/283/197
f 100/284/198 99/285/196 117/286/197 118/287/199
f 101/288/200 100/289/198 118/290/199 119/291/201
f 102/292/202 101/293/200 119/294/201 120/295/203
f 103/296/204 102/297/202 120/298/203 121/299/205
f 104/300/206 103/301/204 121/302/205 122/303/207
f 105/304/208 104/305/206 122/306/207 123/307/209
f 106/308/210 105/309/208 123/310/209 124/311/211
f 107/312/212 106/313/210 124/314/211 125/315/213
f 108/316/214 107/317/212 125/318/213 126/319/215
f 109/320/216 108/321/214 126/322/215 127/323/217
f 92/324/183 109/325/216 127/326/217 110/327/184
