# This file uses centimeters as units for non-parametric coordinates.

mtllib threecolumns01.mtl
g default
v -584.672032 -2.693068 -1040.652888
v -563.516585 -2.693068 -1036.568289
v -584.672032 352.600613 -1040.652888
v -563.516585 352.600613 -1036.568289
v -580.516626 352.600613 -1062.175904
v -559.361225 352.600613 -1058.091670
v -580.516626 -2.693068 -1062.175904
v -559.361225 -2.693068 -1058.091670
v -580.516626 325.953599 -1062.175904
v -559.361225 325.953599 -1058.091670
v -563.516677 325.953599 -1036.568289
v -584.672032 325.953599 -1040.652888
v 1142.652092 325.950729 -729.489599
v 1138.496959 325.950729 -707.966309
v 1142.652456 352.597743 -729.489599
v 1138.496959 352.597743 -707.966309
vt 0.375000 0.000000
vt 0.625000 0.000000
vt 0.625000 0.250000
vt 0.375000 0.250000
vt 0.625000 0.500000
vt 0.375000 0.500000
vt 0.625000 0.750000
vt 0.375000 0.750000
vt 0.625000 1.000000
vt 0.375000 1.000000
vt 0.875000 0.000000
vt 0.875000 0.250000
vt 0.125000 0.000000
vt 0.125000 0.250000
vt 0.125000 0.231250
vt 0.375000 0.518750
vt 0.625000 0.518750
vt 0.875000 0.231250
vt 0.625000 0.231250
vt 0.375000 0.231250
vt 0.625000 0.231250
vt 0.875000 0.231250
vt 0.875000 0.250000
vt 0.625000 0.250000
vn -0.189574 -0.000000 0.981866
vn -0.189574 -0.000000 0.981866
vn -0.189567 0.000000 0.981868
vn -0.189574 0.000000 0.981866
vn 0.189560 0.000000 -0.981869
vn 0.189560 0.000000 -0.981869
vn 0.189560 0.000000 -0.981869
vn 0.189565 -0.000001 -0.981868
vn 0.000000 -1.000000 0.000000
vn 0.000000 -1.000000 0.000000
vn 0.000000 -1.000000 0.000000
vn 0.000000 -1.000000 0.000000
vn 0.981868 0.000000 0.189564
vn 0.981868 0.000000 0.189564
vn 0.981868 0.000000 0.189564
vn 0.981868 0.000000 0.189564
vn -0.981868 0.000000 -0.189567
vn -0.981868 0.000000 -0.189567
vn -0.981868 0.000000 -0.189567
vn -0.981868 0.000000 -0.189567
vn 0.189557 0.000000 -0.981870
vn 0.189566 -0.000001 -0.981868
vn 0.981869 -0.000007 0.189561
vn 0.981869 -0.000007 0.189561
vn 0.981869 -0.000007 0.189561
vn 0.981869 -0.000007 0.189561
vn -0.189566 0.000000 0.981868
vn -0.189576 0.000001 0.981866
vn -0.981868 0.000000 -0.189567
vn -0.981868 0.000000 -0.189567
vn -0.000002 -1.000000 -0.000001
vn -0.000002 -1.000000 -0.000001
vn -0.000002 -1.000000 -0.000001
vn -0.000002 -1.000000 -0.000001
vn 0.189566 -0.000001 -0.981868
vn 0.189566 -0.000001 -0.981868
vn 0.000002 1.000000 0.000002
vn 0.000002 1.000000 0.000002
vn 0.000002 1.000000 0.000002
vn 0.000002 1.000000 0.000002
vn -0.189566 0.000000 0.981868
vn -0.189566 0.000000 0.981868
s 1
g polySurface206 pCube53
usemtl initialShadingGroup
f 1/1/1 2/2/2 11/19/3 12/20/4
s 2
f 8/7/5 7/8/6 9/16/7 10/17/8
s off
f 7/8/9 8/7/10 2/9/11 1/10/12
f 2/2/13 8/11/14 10/18/15 11/19/16
s 3
f 7/13/17 1/1/18 12/20/19 9/15/20
s 2
f 5/6/21 6/5/22 10/17/8 9/16/7
s off
f 14/21/23 13/22/24 15/23/25 16/24/26
s 1
f 12/20/4 11/19/3 4/3/27 3/4/28
s 3
f 9/15/20 12/20/19 3/4/29 5/14/30
s off
f 11/19/31 10/18/32 13/22/33 14/21/34
s 2
f 10/18/8 6/12/22 15/23/35 13/22/36
s off
f 6/12/37 4/3/38 16/24/39 15/23/40
s 1
f 4/3/27 11/19/3 14/21/41 16/24/42
g default
v -608.688894 -2.693068 -959.553068
v -587.533402 -2.693068 -955.468469
v -608.688894 352.600613 -959.553068
v -587.533402 352.600613 -955.468469
v -604.533396 352.600613 -981.076085
v -583.377995 352.600613 -976.991850
v -604.533396 -2.693068 -981.076085
v -583.377995 -2.693068 -976.991850
v -604.533396 325.953599 -981.076085
v -583.377995 325.953599 -976.991850
v -587.533493 325.953599 -955.468469
v -608.688894 325.953599 -959.553068
v 1118.635503 325.950729 -648.389779
v 1114.480370 325.950729 -626.866489
v 1118.635503 352.597743 -648.389688
v 1114.480370 352.597743 -626.866489
vt 0.375000 0.000000
vt 0.625000 0.000000
vt 0.625000 0.250000
vt 0.375000 0.250000
vt 0.625000 0.500000
vt 0.375000 0.500000
vt 0.625000 0.750000
vt 0.375000 0.750000
vt 0.625000 1.000000
vt 0.375000 1.000000
vt 0.875000 0.000000
vt 0.875000 0.250000
vt 0.125000 0.000000
vt 0.125000 0.250000
vt 0.125000 0.231250
vt 0.375000 0.518750
vt 0.625000 0.518750
vt 0.875000 0.231250
vt 0.625000 0.231250
vt 0.375000 0.231250
vt 0.625000 0.231250
vt 0.875000 0.231250
vt 0.875000 0.250000
vt 0.625000 0.250000
vn -0.189574 -0.000000 0.981866
vn -0.189574 -0.000000 0.981866
vn -0.189567 0.000000 0.981868
vn -0.189574 0.000000 0.981866
vn 0.189560 0.000000 -0.981869
vn 0.189560 0.000000 -0.981869
vn 0.189560 0.000000 -0.981869
vn 0.189565 0.000001 -0.981868
vn 0.000000 -1.000000 0.000000
vn 0.000000 -1.000000 0.000000
vn 0.000000 -1.000000 0.000000
vn 0.000000 -1.000000 0.000000
vn 0.981868 0.000000 0.189566
vn 0.981868 0.000000 0.189566
vn 0.981868 0.000000 0.189566
vn 0.981868 0.000000 0.189566
vn -0.981867 0.000000 -0.189571
vn -0.981867 0.000000 -0.189571
vn -0.981867 0.000000 -0.189571
vn -0.981867 0.000000 -0.189571
vn 0.189557 0.000000 -0.981870
vn 0.189566 0.000002 -0.981868
vn 0.981870 0.000000 0.189553
vn 0.981870 0.000000 0.189553
vn 0.981870 0.000000 0.189553
vn 0.981870 0.000000 0.189553
vn -0.189566 0.000000 0.981868
vn -0.189575 0.000000 0.981866
vn -0.981867 0.000000 -0.189571
vn -0.981867 0.000000 -0.189571
vn -0.000002 -1.000000 0.000000
vn -0.000002 -1.000000 0.000000
vn -0.000002 -1.000000 0.000000
vn -0.000002 -1.000000 0.000000
vn 0.189566 0.000002 -0.981868
vn 0.189566 0.000002 -0.981868
vn 0.000002 1.000000 0.000000
vn 0.000002 1.000000 0.000000
vn 0.000002 1.000000 0.000000
vn 0.000002 1.000000 0.000000
vn -0.189566 0.000000 0.981868
vn -0.189566 0.000000 0.981868
s 1
g pCube53 polySurface284
usemtl initialShadingGroup
f 17/25/43 18/26/44 27/43/45 28/44/46
s 2
f 24/31/47 23/32/48 25/40/49 26/41/50
s off
f 23/32/51 24/31/52 18/33/53 17/34/54
f 18/26/55 24/35/56 26/42/57 27/43/58
s 3
f 23/37/59 17/25/60 28/44/61 25/39/62
s 2
f 21/30/63 22/29/64 26/41/50 25/40/49
s off
f 30/45/65 29/46/66 31/47/67 32/48/68
s 1
f 28/44/46 27/43/45 20/27/69 19/28/70
s 3
f 25/39/62 28/44/61 19/28/71 21/38/72
s off
f 27/43/73 26/42/74 29/46/75 30/45/76
s 2
f 26/42/50 22/36/64 31/47/77 29/46/78
s off
f 22/36/79 20/27/80 32/48/81 31/47/82
s 1
f 20/27/69 27/43/45 30/45/83 32/48/84
g default
v -625.610882 -2.693068 -879.875049
v -604.455435 -2.693068 -875.790450
v -625.610882 352.600613 -879.875049
v -604.455435 352.600613 -875.790450
v -621.455384 352.600613 -901.398065
v -600.300029 352.600613 -897.313831
v -621.455384 -2.693068 -901.398065
v -600.300029 -2.693068 -897.313831
v -621.455384 325.953599 -901.398065
v -600.300029 325.953599 -897.313831
v -604.455526 325.953599 -875.790450
v -625.610882 325.953599 -879.875049
v 1101.713516 325.950729 -568.711760
v 1097.558018 325.950729 -547.188470
v 1101.713516 352.597743 -568.711760
v 1097.558018 352.597743 -547.188470
vt 0.375000 0.000000
vt 0.625000 0.000000
vt 0.625000 0.250000
vt 0.375000 0.250000
vt 0.625000 0.500000
vt 0.375000 0.500000
vt 0.625000 0.750000
vt 0.375000 0.750000
vt 0.625000 1.000000
vt 0.375000 1.000000
vt 0.875000 0.000000
vt 0.875000 0.250000
vt 0.125000 0.000000
vt 0.125000 0.250000
vt 0.125000 0.231250
vt 0.375000 0.518750
vt 0.625000 0.518750
vt 0.875000 0.231250
vt 0.625000 0.231250
vt 0.375000 0.231250
vt 0.625000 0.231250
vt 0.875000 0.231250
vt 0.875000 0.250000
vt 0.625000 0.250000
vn -0.189574 -0.000000 0.981866
vn -0.189574 -0.000000 0.981866
vn -0.189567 0.000000 0.981868
vn -0.189574 0.000000 0.981866
vn 0.189560 0.000000 -0.981869
vn 0.189560 0.000000 -0.981869
vn 0.189560 0.000000 -0.981869
vn 0.189565 0.000000 -0.981868
vn 0.000000 -1.000000 0.000000
vn 0.000000 -1.000000 0.000000
vn 0.000000 -1.000000 0.000000
vn 0.000000 -1.000000 0.000000
vn 0.981868 0.000000 0.189566
vn 0.981868 0.000000 0.189566
vn 0.981868 0.000000 0.189566
vn 0.981868 0.000000 0.189566
vn -0.981867 0.000000 -0.189571
vn -0.981867 0.000000 -0.189571
vn -0.981867 0.000000 -0.189571
vn -0.981867 0.000000 -0.189571
vn 0.189561 0.000000 -0.981869
vn 0.189566 0.000000 -0.981868
vn 0.981867 0.000000 0.189569
vn 0.981867 0.000000 0.189569
vn 0.981867 0.000000 0.189569
vn 0.981867 0.000000 0.189569
vn -0.189566 0.000000 0.981868
vn -0.189576 0.000000 0.981866
vn -0.981867 0.000000 -0.189571
vn -0.981867 0.000000 -0.189571
vn -0.000002 -1.000000 -0.000001
vn -0.000002 -1.000000 -0.000001
vn -0.000002 -1.000000 -0.000001
vn -0.000002 -1.000000 -0.000001
vn 0.189566 0.000000 -0.981868
vn 0.189566 0.000000 -0.981868
vn 0.000002 1.000000 0.000002
vn 0.000002 1.000000 0.000002
vn 0.000002 1.000000 0.000002
vn 0.000002 1.000000 0.000002
vn -0.189566 0.000000 0.981868
vn -0.189566 0.000000 0.981868
s 1
g pCube53 polySurface285
usemtl initialShadingGroup
f 33/49/85 34/50/86 43/67/87 44/68/88
s 2
f 40/55/89 39/56/90 41/64/91 42/65/92
s off
f 39/56/93 40/55/94 34/57/95 33/58/96
f 34/50/97 40/59/98 42/66/99 43/67/100
s 3
f 39/61/101 33/49/102 44/68/103 41/63/104
s 2
f 37/54/105 38/53/106 42/65/92 41/64/91
s off
f 46/69/107 45/70/108 47/71/109 48/72/110
s 1
f 44/68/88 43/67/87 36/51/111 35/52/112
s 3
f 41/63/104 44/68/103 35/52/113 37/62/114
s off
f 43/67/115 42/66/116 45/70/117 46/69/118
s 2
f 42/66/92 38/60/106 47/71/119 45/70/120
s off
f 38/60/121 36/51/122 48/72/123 47/71/124
s 1
f 36/51/111 43/67/87 46/69/125 48/72/126
